<svg viewBox="0 0 705.683349609375 400" xmlns="http://www.w3.org/2000/svg"><g><g><g><g><g><line x1="41.04100036621094" y1="378.0640001296997" x2="36.04100036621094" y2="378.0640001296997" style="visibility: inherit;" fill="rgb(0, 0, 0)" stroke="rgb(204, 204, 204)" stroke-width="1px"></line><line x1="41.04100036621094" y1="335.81964647551695" x2="36.04100036621094" y2="335.81964647551695" style="visibility: inherit;" fill="rgb(0, 0, 0)" stroke="rgb(204, 204, 204)" stroke-width="1px"></line><line x1="41.04100036621094" y1="293.57529282133424" x2="36.04100036621094" y2="293.57529282133424" style="visibility: inherit;" fill="rgb(0, 0, 0)" stroke="rgb(204, 204, 204)" stroke-width="1px"></line><line x1="41.04100036621094" y1="251.33093916715148" x2="36.04100036621094" y2="251.33093916715148" style="visibility: inherit;" fill="rgb(0, 0, 0)" stroke="rgb(204, 204, 204)" stroke-width="1px"></line><line x1="41.04100036621094" y1="209.08658551296875" x2="36.04100036621094" y2="209.08658551296875" style="visibility: inherit;" fill="rgb(0, 0, 0)" stroke="rgb(204, 204, 204)" stroke-width="1px"></line><line x1="41.04100036621094" y1="166.84223185878602" x2="36.04100036621094" y2="166.84223185878602" style="visibility: inherit;" fill="rgb(0, 0, 0)" stroke="rgb(204, 204, 204)" stroke-width="1px"></line><line x1="41.04100036621094" y1="124.59787820460326" x2="36.04100036621094" y2="124.59787820460326" style="visibility: inherit;" fill="rgb(0, 0, 0)" stroke="rgb(204, 204, 204)" stroke-width="1px"></line><line x1="41.04100036621094" y1="82.35352455042056" x2="36.04100036621094" y2="82.35352455042056" style="visibility: inherit;" fill="rgb(0, 0, 0)" stroke="rgb(204, 204, 204)" stroke-width="1px"></line><line x1="41.04100036621094" y1="40.1091708962378" x2="36.04100036621094" y2="40.1091708962378" style="visibility: inherit;" fill="rgb(0, 0, 0)" stroke="rgb(204, 204, 204)" stroke-width="1px"></line></g><g transform="translate(31.041000366210938, 0)"><text style="text-anchor: end; visibility: hidden; font-family: &quot;Helvetica Neue&quot;, sans-serif; font-size: 12px; font-weight: 200;" x="0" y="378.0640001296997" dx="0em" dy="0.3em" fill="rgb(50, 49, 63)" stroke="none" stroke-width="1px">-20</text><text style="text-anchor: end; visibility: inherit; font-family: &quot;Helvetica Neue&quot;, sans-serif; font-size: 12px; font-weight: 200;" x="0" y="335.81964647551695" dx="0em" dy="0.3em" fill="rgb(50, 49, 63)" stroke="none" stroke-width="1px">-15</text><text style="text-anchor: end; visibility: inherit; font-family: &quot;Helvetica Neue&quot;, sans-serif; font-size: 12px; font-weight: 200;" x="0" y="293.57529282133424" dx="0em" dy="0.3em" fill="rgb(50, 49, 63)" stroke="none" stroke-width="1px">-10</text><text style="text-anchor: end; visibility: inherit; font-family: &quot;Helvetica Neue&quot;, sans-serif; font-size: 12px; font-weight: 200;" x="0" y="251.33093916715148" dx="0em" dy="0.3em" fill="rgb(50, 49, 63)" stroke="none" stroke-width="1px">-5</text><text style="text-anchor: end; visibility: inherit; font-family: &quot;Helvetica Neue&quot;, sans-serif; font-size: 12px; font-weight: 200;" x="0" y="209.08658551296875" dx="0em" dy="0.3em" fill="rgb(50, 49, 63)" stroke="none" stroke-width="1px">0</text><text style="text-anchor: end; visibility: inherit; font-family: &quot;Helvetica Neue&quot;, sans-serif; font-size: 12px; font-weight: 200;" x="0" y="166.84223185878602" dx="0em" dy="0.3em" fill="rgb(50, 49, 63)" stroke="none" stroke-width="1px">5</text><text style="text-anchor: end; visibility: inherit; font-family: &quot;Helvetica Neue&quot;, sans-serif; font-size: 12px; font-weight: 200;" x="0" y="124.59787820460326" dx="0em" dy="0.3em" fill="rgb(50, 49, 63)" stroke="none" stroke-width="1px">10</text><text style="text-anchor: end; visibility: inherit; font-family: &quot;Helvetica Neue&quot;, sans-serif; font-size: 12px; font-weight: 200;" x="0" y="82.35352455042056" dx="0em" dy="0.3em" fill="rgb(50, 49, 63)" stroke="none" stroke-width="1px">15</text><text style="text-anchor: end; visibility: inherit; font-family: &quot;Helvetica Neue&quot;, sans-serif; font-size: 12px; font-weight: 200;" x="0" y="40.1091708962378" dx="0em" dy="0.3em" fill="rgb(50, 49, 63)" stroke="none" stroke-width="1px">20</text></g><line x1="41.04100036621094" y1="0" x2="41.04100036621094" y2="378.0640001296997" fill="rgb(0, 0, 0)" stroke="rgb(204, 204, 204)" stroke-width="1px"></line></g></g><g transform="translate(41, 0)" clip-path="url(#clip_0)"><clipPath id="clip_0"><rect width="664" height="378"></rect></clipPath><g><g><g><line x1="31.325452663539682" y1="0" x2="31.325452663539682" y2="378.0640001296997" fill="rgb(0, 0, 0)" stroke="rgb(60, 60, 60)" stroke-width="1px" opacity="0.25"></line><line x1="79.82401006979747" y1="0" x2="79.82401006979747" y2="378.0640001296997" fill="rgb(0, 0, 0)" stroke="rgb(60, 60, 60)" stroke-width="1px" opacity="0.25"></line><line x1="128.32256747605527" y1="0" x2="128.32256747605527" y2="378.0640001296997" fill="rgb(0, 0, 0)" stroke="rgb(60, 60, 60)" stroke-width="1px" opacity="0.25"></line><line x1="176.82112488231306" y1="0" x2="176.82112488231306" y2="378.0640001296997" fill="rgb(0, 0, 0)" stroke="rgb(60, 60, 60)" stroke-width="1px" opacity="0.25"></line><line x1="225.31968228857087" y1="0" x2="225.31968228857087" y2="378.0640001296997" fill="rgb(0, 0, 0)" stroke="rgb(60, 60, 60)" stroke-width="1px" opacity="0.25"></line><line x1="273.81823969482866" y1="0" x2="273.81823969482866" y2="378.0640001296997" fill="rgb(0, 0, 0)" stroke="rgb(60, 60, 60)" stroke-width="1px" opacity="0.25"></line><line x1="322.3167971010865" y1="0" x2="322.3167971010865" y2="378.0640001296997" fill="rgb(0, 0, 0)" stroke="rgb(60, 60, 60)" stroke-width="1px" opacity="0.25"></line><line x1="370.81535450734424" y1="0" x2="370.81535450734424" y2="378.0640001296997" fill="rgb(0, 0, 0)" stroke="rgb(60, 60, 60)" stroke-width="1px" opacity="0.25"></line><line x1="419.31391191360206" y1="0" x2="419.31391191360206" y2="378.0640001296997" fill="rgb(0, 0, 0)" stroke="rgb(60, 60, 60)" stroke-width="1px" opacity="0.25"></line><line x1="467.8124693198598" y1="0" x2="467.8124693198598" y2="378.0640001296997" fill="rgb(0, 0, 0)" stroke="rgb(60, 60, 60)" stroke-width="1px" opacity="0.25"></line><line x1="516.3110267261176" y1="0" x2="516.3110267261176" y2="378.0640001296997" fill="rgb(0, 0, 0)" stroke="rgb(60, 60, 60)" stroke-width="1px" opacity="0.25"></line><line x1="564.8095841323753" y1="0" x2="564.8095841323753" y2="378.0640001296997" fill="rgb(0, 0, 0)" stroke="rgb(60, 60, 60)" stroke-width="1px" opacity="0.25"></line><line x1="613.3081415386332" y1="0" x2="613.3081415386332" y2="378.0640001296997" fill="rgb(0, 0, 0)" stroke="rgb(60, 60, 60)" stroke-width="1px" opacity="0.25"></line><line x1="661.806698944891" y1="0" x2="661.806698944891" y2="378.0640001296997" fill="rgb(0, 0, 0)" stroke="rgb(60, 60, 60)" stroke-width="1px" opacity="0.25"></line></g><g><line x1="0" y1="378.0640001296997" x2="664.641999633789" y2="378.0640001296997" fill="rgb(0, 0, 0)" stroke="rgb(60, 60, 60)" stroke-width="1px" opacity="0.25"></line><line x1="0" y1="335.81964647551695" x2="664.641999633789" y2="335.81964647551695" fill="rgb(0, 0, 0)" stroke="rgb(60, 60, 60)" stroke-width="1px" opacity="0.25"></line><line x1="0" y1="293.57529282133424" x2="664.641999633789" y2="293.57529282133424" fill="rgb(0, 0, 0)" stroke="rgb(60, 60, 60)" stroke-width="1px" opacity="0.25"></line><line x1="0" y1="251.33093916715148" x2="664.641999633789" y2="251.33093916715148" fill="rgb(0, 0, 0)" stroke="rgb(60, 60, 60)" stroke-width="1px" opacity="0.25"></line><line x1="0" y1="209.08658551296875" x2="664.641999633789" y2="209.08658551296875" fill="rgb(0, 0, 0)" stroke="rgb(60, 60, 60)" stroke-width="1px" opacity="0.25"></line><line x1="0" y1="166.84223185878602" x2="664.641999633789" y2="166.84223185878602" fill="rgb(0, 0, 0)" stroke="rgb(60, 60, 60)" stroke-width="1px" opacity="0.25"></line><line x1="0" y1="124.59787820460326" x2="664.641999633789" y2="124.59787820460326" fill="rgb(0, 0, 0)" stroke="rgb(60, 60, 60)" stroke-width="1px" opacity="0.25"></line><line x1="0" y1="82.35352455042056" x2="664.641999633789" y2="82.35352455042056" fill="rgb(0, 0, 0)" stroke="rgb(60, 60, 60)" stroke-width="1px" opacity="0.25"></line><line x1="0" y1="40.1091708962378" x2="664.641999633789" y2="40.1091708962378" fill="rgb(0, 0, 0)" stroke="rgb(60, 60, 60)" stroke-width="1px" opacity="0.25"></line></g></g></g><g><g><line x1="0" y1="209.08658551296875" x2="664.641999633789" y2="209.08658551296875" fill="rgb(0, 0, 0)" stroke="rgb(153, 153, 153)" stroke-width="1.5px"></line></g></g><g><g><line x1="31.325452663539682" y1="0" x2="31.325452663539682" y2="378.0640001296997" fill="rgb(0, 0, 0)" stroke="rgb(153, 153, 153)" stroke-width="1.5px"></line></g></g><g><g><g><g><g><path style="fill: none;" stroke="rgb(255, 112, 67)" stroke-width="2px" d="M35.932815617134175,386.5128708605363L37.387772339321906,324.0951136948397L41.26765693182253,339.8121909298879L41.752642505885106,349.17166234204L42.48012086697897,355.35292662453435L44.42006316322929,330.4843317560869L45.14754152432315,340.354286464171L48.78493332979249,346.53283173550216L49.51241169088635,351.39358032118696L54.36226743151213,355.2974908015367L56.302209727762445,336.00772281071346L57.2721808758876,321.18057561568475L62.12203661651338,329.697430358257L65.27444284792014,336.8927407202505L69.15432744042076,343.01969429373935L69.88180580151463,348.2720507939092L72.06424088479622,352.8006210762553L74.73166154214042,356.7245429302177L75.94412547729685,341.73780933963724L76.42911105135943,344.8904132627141L76.67160383839072,349.54121285538105L77.64157498651588,353.62845481890247L81.76395236604779,357.22945737463715L85.64383695854842,357.6569206464252L87.09879368073615,360.76656385790005L88.3112576158926,349.0525409773058L91.94864942136192,353.03823139975725L93.40360614354965,354.79250517992506L94.6160700787061,358.13323417723973L96.31351958792511,359.33728646243134L97.28349073605027,348.9373614358874L97.76847631011285,344.9331800145829L102.37583926370735,336.0960201675372L106.25572385620798,341.3137454518957L106.74070943027056,345.1076383432757L108.68065172652086,349.3725555733382L111.59056517089633,352.32198633991345L113.77300025417794,355.83044086548983L115.71294255042825,355.5115135282352L119.59282714292887,347.4467801607895L120.56279829105402,347.1220653007658L133.65740879074363,333.8979762733961L133.89990157777493,327.2035559309227L138.02227895730684,322.91818801012016L138.5072645313694,312.1944952156014L138.7497573184007,306.0057512087326L139.47723567949456,301.3085976536025L143.11462748496388,307.3871844759226L143.84210584605776,301.69776715377236L144.08459863308906,300.0166936183996L146.50952650340196,308.7873645799753L150.63190388293387,299.5381600160017L151.11688945699643,291.2294288711817L156.2092379846535,291.46704135469224L156.93671634574736,301.09143958240065L158.8766586419977,309.739011816631L160.3316153641854,300.40704226137893L160.816600938248,300.57067749569063L161.54407929934186,300.7177267851L162.9990360215296,292.30360147060946L164.21149995668605,285.5962419331874L166.63642782699895,278.7136961856273L168.09138454918667,282.7791893731034L170.51631241949957,289.8499272557533L171.9712691416873,264.603706323378L172.45625471574988,252.15986175033146L173.66871865090633,254.63792574513178L173.9112114379376,232.9565415516386L177.54860324340694,224.56746151391664L181.91347340997012,229.8333247373293L182.39845898403271,222.6145064882476L185.30837242840818,205.027396372946L187.0058219376272,197.75459726809387L187.24831472465848,204.02127685920715L187.73330029872105,213.9225983252259L188.46077865981493,225.38401732214436L188.9457642338775,206.6666286835595L191.85567767825296,207.76462439441207L194.28060554856586,204.48414298044756L195.00808390965972,187.02579768572414L197.19051899294135,192.66819253473133L198.4029829280978,212.24934880436757L204.70779539091131,214.4902101129027L205.67776653903647,196.87565765253146L206.64773768716162,198.96251751504695L206.8902304741929,202.54539609401579L208.58767998341193,219.4208783177544L210.77011506669353,230.3246539255203L211.7400862148187,225.61927686967002L212.71005736294384,206.88159512468582L213.92252129810026,201.1306271914052L214.89249244622542,201.93421922456852L217.07492752950702,199.24314329065714L218.04489867763218,183.16996154097043L218.28739146466347,179.81406684895558L218.52988425169477,182.7706879472246L219.01486982575733,185.4286717645272L220.71231933497637,171.60437264991202L221.9247832701328,158.3230416191706L222.40976884419538,163.45026910220952L223.62223277935183,168.91297793277056L224.1072183534144,159.31697149113063L225.07718950153955,165.19712973563247L226.04716064966473,160.24320024908212L227.50211737185248,166.0297907067975L227.74461015888377,152.4583190837009L233.3219442606034,157.32448739318355L234.29191540872856,151.45903856400554L242.29417738076108,146.18601032209125L243.50664131591753,143.1522506828962L243.9916268899801,149.8116626091385L245.44658361216784,153.23844239573586L247.38652590841815,147.78570839199114L248.84148263060587,139.47034591925228L249.81145377873102,144.79493726677183L251.50890328795006,150.43507973266017L251.99388886201262,145.265496471015L253.44884558420037,146.59141496929283L253.93383115826293,137.54335463626344L257.328730176701,139.649210641894L257.5712229637323,144.1023878431648L259.9961508340452,147.25245450043514L260.72362919513904,138.13763791924796L262.9060642784207,142.74348143788978L263.8760354265458,139.2040983435188L264.846006574671,146.2622390137348L267.02844165795256,151.7541686879821L267.2709344449839,153.2780647200261L268.7258911671716,141.84799530578294L268.96838395420286,132.42570173000942L270.1808478893593,134.19510077888086L273.0907613337348,134.07911716057583L274.5457180559225,139.0948668252508L275.2731964170164,140.19067943304807L277.45563150029795,134.34912378488804L278.18310986139187,141.04427457187472L280.1230521576422,147.91655083410828L284.73041511123665,151.53471785756932L287.8828213426434,157.34745844392452L289.3377780648312,156.59975844533415L290.06525642592504,150.80755913660946L290.55024199998763,139.6270191947339L291.52021314811276,143.2290924082019L292.9751698703005,132.81397828045797L294.1876338054569,129.42414374004997L296.6125616757698,131.4966990829205L298.06751839795754,122.26655741281297L299.0374895460827,126.768701112104L299.279982333114,129.96279214378896L301.7049102034269,132.83427991029194L302.91737413858334,123.46904302288797L311.889607258741,115.04969522931663L312.85957840686615,107.48070169883914L313.1020711938975,116.88956066041271L313.34456398092874,115.96142878797662L317.70943414749195,108.30035031964007L320.61934759186744,114.21308064738741L320.8618403788987,113.55527328380316L322.3167971010865,106.13721664628457L324.01424661030546,106.2950715817156L330.319059073119,112.4103349671625L330.80404464718157,117.05462074422024L333.22897251749447,109.28313010676197L335.89639317483864,106.56323988175978L336.62387153593255,99.85137877265839L337.35134989702635,109.17746294263554L342.20120563765215,116.70827661916769L343.65616235983987,113.2384466070506L345.3536118690589,116.94575708092168L346.8085685912466,110.03859773453576L349.2334964615595,105.53573340517443L350.68845318374724,104.90100219211968L351.4159315448411,98.3570271723475L354.0833522021853,92.47399364086692L354.8108305632791,95.7185060054012L355.53830892437304,95.22197881901621L355.7808017114043,93.92226493024839L367.4204554889062,96.16716593900645L368.1479338500001,90.50530841278976L368.87541221109393,97.36200176630416L369.1179049981252,105.23284097967866L374.4527463128136,109.74871758642661L377.362659757189,102.71512334889218L377.8476453312516,98.95192997211979L378.81761647937674,101.5421707500966L379.7875876275019,95.33743775086788L380.75755877562705,89.7593827872443L386.8198784514093,89.01139110396218L387.06237123844056,92.60562630701475L389.7297918957848,90.71682808300261L391.6697341920351,92.43214225992631L392.6397053401602,88.00085809073408L393.1246909142228,99.3771806287379L395.5496187845357,107.04448675416256L397.24706829375475,100.28401984666596L400.88446009922404,107.85973520959413L401.8544312473492,101.01692820916264L407.67425813610015,110.22529171500383L407.9167509231315,120.21028239423839L411.7966355156321,115.53341390582335L412.03912830266336,107.91556535837753L414.221563385945,101.0671195148908L415.6765201081327,101.73705425516994L416.6464912562579,95.51263803385314L418.8289263395395,89.91688785128542L420.5263758487585,97.68634759812574L420.76886863578983,104.67109191013577L423.92127486719653,100.71034571831746L426.10370995047816,98.002970836018L427.31617388563456,100.68905648071546L428.52863782079106,96.27715992361772L429.25611618188486,91.45752897498477L430.46858011704137,93.95136830367909L431.19605847813517,88.51330636490547L434.10597192251066,85.33116056987183L436.04591421876097,79.91040366851928L437.74336372798,76.74381510207007L439.440813237199,88.40376302681307L441.6232483204806,99.7393921548616L442.5932194686058,100.54342735830511L442.835712255637,99.55958311846979L443.07820504266834,95.26176337144364L443.56319061673094,89.69135153120345L444.2906689778248,97.48359044459664L445.98811848704383,94.24878190154118L448.1705535703254,88.78068118983128L450.59548144063837,88.13153836923215L451.5654525887635,88.40129491735365L452.0504381628261,90.35047794178206L452.7779165239199,86.9827778177409L453.9903804590764,94.19524673220695L454.71785882017025,90.43922496033986L454.9603516072016,86.20922544361605L455.2028443942328,84.96646370957194L459.8102073478273,86.40922874214425L461.9926424311089,80.8795869558324L463.4475991532966,91.26848597876233L465.14504866251565,86.10139515538151L465.3875414495469,83.16285239281348L467.56997653282855,78.81443056162811L469.26742604204753,80.87855094213847L472.177339486423,76.76084355747861L474.35977456970465,79.88571216922554L475.3297457178298,75.01494555681649L477.7546735881427,71.48946231608318L478.72464473626786,81.12009203993262L479.9371086714243,76.12465306058789L480.9070798195495,85.28712851923405L484.0594860509562,80.72415479929879L484.7869644120501,76.62204142507949L486.2419211342378,78.05425716455659L486.7269067083004,73.3684675076326L494.97166146736424,85.36932553856417L496.42661818955196,80.79804991968177L500.54899556908384,80.95515285738662L501.0339811431464,76.82970867930521L501.51896671720897,75.68094219465752L502.9739234393967,78.91488084403642L503.70140180049054,75.84884008312036L504.18638737455314,71.38579755142695L508.5512575411163,71.64020203451099L511.94615655955437,84.66895082202967L512.431142133617,85.28842871241204L516.7960123001801,96.0853706616453L517.7659834483053,102.3784776987452L519.7059257445555,104.62263714983783L520.6758968926807,98.10677705822161L523.1008247629937,92.24901883585909L523.8283031240875,86.12955825014086L525.2832598462753,86.60151479028377L531.1030867350262,81.05245211316912L534.0130001794016,88.86388392366382L534.2554929664329,95.03302517748352L534.9829713275268,98.01907533322316L535.2254641145581,98.14352659178911L535.7104496886207,92.28205666653747L536.1954352626833,93.83928275425336L537.1654064108085,89.26587740040776L538.1353775589336,85.1543859873006L539.3478414940901,80.60481926310274L539.8328270681526,75.66142283423449L543.470218873622,88.28402832097322L551.7149736326858,91.09839121540557L552.684944780811,85.94847996316929L553.1699303548735,94.11874890462701L554.38239429003,90.37045341340848L556.5648293733116,87.00073576680307L558.5047716695618,90.798047153021L559.474742817687,86.53180659490033L561.8996706879999,80.98978444552074L562.3846562620624,76.86084247704298L562.8696418361251,89.36230657985732L563.1121346231564,94.6277712015858L564.0821057712815,89.97472851456001L564.8095841323753,85.79164313892392L566.7495264286257,88.0044009929286L567.7194975767508,99.38036568563837L571.1143965951889,95.10064689953782L572.5693533173766,98.93320320516392L573.7818172525331,94.69864782959132L574.0243100395643,90.038446603137L574.5092956136269,84.99558975674017L575.2367739747208,94.96877249667591L575.7217595487833,99.66798406080557L576.206745122846,99.6258955378857L576.4492379098772,93.6147063490792L578.1466874190962,96.7440067064872L578.8741657801901,94.43723206490995L580.0866297153466,98.33679326883345L584.6939926689411,108.66918634167666L587.118920539254,116.25133582653376L588.5738772614417,108.56097716857386L590.0288339836294,110.1807041732128L590.9988051317546,106.51682308749628L591.2412979187859,98.9563142723647L593.90871857613,93.01275279137587L594.1512113631613,86.81615507615237L597.7886031686306,83.80542156161005L600.2135310389435,84.5121159072944L602.3959661222251,89.4141138431371L606.518343501757,99.7943615941611L610.8832136683203,93.76615733367083L611.1257064553515,88.34680170349009L611.610692029414,96.27484014917496L614.0356198997271,103.40214671184572L615.0055910478522,98.7162280420983L619.6129540014466,96.21025904562435L622.2803746587908,97.37073669305221L624.2203169550412,102.68068581716238L625.6752736772289,95.50762686633448L625.9177664642601,106.12576574583005L626.4027520383228,114.81813665468201L626.8877376123853,112.39254677596614L628.1002015475418,104.23858986829907L634.162521223324,109.70822176552377L634.4050140103553,105.23872545916936L636.8299418806682,99.51397639212774L637.3149274547308,92.66075509322843L638.5273913898872,94.17973263984828L641.9222904083252,95.54529345425954L643.3772471305131,103.59962017693124L645.074696639732,96.33374885576666L645.5596822137946,105.16177752670058L646.0446677878572,104.5648158637253L649.1970740192639,98.90813166582359L650.1670451673891,109.18281956057075L650.6520307414517,113.29974831506149L653.8044369728584,109.3208437710183L656.7143504172338,104.03713669829443L659.6242638616093,96.72707620847223L659.8667566486407,97.83535532245253L660.1092494356719,97.97836230210629L662.0491917319222,91.280238026299L663.50414845411,96.35199157193671L667.626525833642,95.79148234657805" fill="none"></path></g></g></g></g><g opacity="0.2"><g><g><g><path style="fill: none;" stroke="rgb(255, 112, 67)" stroke-width="2px" d="M35.932815617134175,386.5128708605363L37.387772339321906,217.5354562438053L41.26765693182253,378.0640001296997L41.752642505885106,378.0640001296997L42.48012086697897,378.0640001296997L44.42006316322929,225.98432697464185L45.14754152432315,386.5128708605363L48.78493332979249,378.0640001296997L49.51241169088635,378.0640001296997L54.36226743151213,378.0640001296997L56.302209727762445,217.5354562438053L57.2721808758876,225.98432697464185L62.12203661651338,386.5128708605363L74.73166154214042,386.5128708605363L75.94412547729685,225.98432697464185L76.42911105135943,369.61512939886313L76.67160383839072,386.5128708605363L81.76395236604779,386.5128708605363L85.64383695854842,361.1662586680266L87.09879368073615,386.5128708605363L88.3112576158926,251.33093916715148L91.94864942136192,386.5128708605363L93.40360614354965,369.61512939886313L94.6160700787061,386.5128708605363L96.31351958792511,369.61512939886313L97.28349073605027,259.77980989798806L97.76847631011285,310.47303428300734L102.37583926370735,259.77980989798806L106.25572385620798,386.5128708605363L106.74070943027056,378.0640001296997L108.68065172652086,386.5128708605363L111.59056517089633,378.0640001296997L113.77300025417794,386.5128708605363L115.71294255042825,352.71738793719004L119.59282714292887,276.67755135966115L120.56279829105402,344.2685172063535L133.65740879074363,217.5354562438053L133.89990157777493,268.2286806288246L138.02227895730684,285.12642209049767L138.5072645313694,217.5354562438053L138.7497573184007,251.33093916715148L139.47723567949456,259.77980989798806L143.11462748496388,361.1662586680266L143.84210584605776,251.33093916715148L144.08459863308906,285.12642209049767L146.50952650340196,386.5128708605363L150.63190388293387,217.5354562438053L151.11688945699643,217.5354562438053L156.2092379846535,293.57529282133424L156.93671634574736,386.5128708605363L158.8766586419977,386.5128708605363L160.3316153641854,217.5354562438053L160.816600938248,302.02416355217076L161.54407929934186,302.02416355217076L162.9990360215296,217.5354562438053L164.21149995668605,225.98432697464185L166.63642782699895,217.5354562438053L168.09138454918667,318.92190501384385L170.51631241949957,352.71738793719004L171.9712691416873,40.1091708962378L172.45625471574988,141.49561966627638L173.66871865090633,276.67755135966115L173.9112114379376,40.1091708962378L177.54860324340694,149.94449039711293L181.91347340997012,276.67755135966115L182.39845898403271,158.39336112794948L185.30837242840818,48.55804162707432L187.0058219376272,133.04674893543984L187.24831472465848,259.77980989798806L187.73330029872105,302.02416355217076L188.46077865981493,327.37077574468043L188.9457642338775,40.1091708962378L191.85567767825296,217.5354562438053L194.28060554856586,175.29110258962254L195.00808390965972,31.660300165401225L197.19051899294135,242.88206843631494L198.4029829280978,386.5128708605363L204.70779539091131,234.4331977054784L205.67776653903647,40.1091708962378L206.64773768716162,217.5354562438053L206.8902304741929,234.4331977054784L208.58767998341193,369.61512939886313L210.77011506669353,327.37077574468043L211.7400862148187,183.7399733204591L212.71005736294384,40.1091708962378L213.92252129810026,149.94449039711293L214.89249244622542,209.08658551296875L217.07492752950702,175.29110258962254L218.04489867763218,40.1091708962378L218.28739146466347,149.94449039711293L218.52988425169477,209.08658551296875L219.01486982575733,209.08658551296875L220.71231933497637,48.55804162707432L221.9247832701328,40.1091708962378L222.40976884419538,209.08658551296875L223.62223277935183,217.5354562438053L224.1072183534144,73.90465381958398L225.07718950153955,217.5354562438053L226.04716064966473,116.14900747376669L227.50211737185248,217.5354562438053L227.74461015888377,31.660300165401225L233.3219442606034,200.6377147821322L234.29191540872856,99.25126601209365L242.29417738076108,99.25126601209365L243.50664131591753,116.14900747376669L243.9916268899801,209.08658551296875L245.44658361216784,183.7399733204591L247.38652590841815,99.25126601209365L248.84148263060587,65.45578308874747L249.81145377873102,192.18884405129566L251.50890328795006,200.6377147821322L251.99388886201262,99.25126601209365L253.44884558420037,158.39336112794948L253.93383115826293,57.00691235791089L257.328730176701,158.39336112794948L257.5712229637323,183.7399733204591L259.9961508340452,175.29110258962254L260.72362919513904,57.00691235791089L262.9060642784207,183.7399733204591L263.8760354265458,107.70013674293017L264.846006574671,209.08658551296875L267.02844165795256,200.6377147821322L267.2709344449839,166.84223185878602L268.7258911671716,40.1091708962378L268.96838395420286,48.55804162707432L270.1808478893593,149.94449039711293L273.0907613337348,133.04674893543984L274.5457180559225,183.7399733204591L275.2731964170164,149.94449039711293L277.45563150029795,82.35352455042056L278.18310986139187,200.6377147821322L280.1230521576422,209.08658551296875L284.73041511123665,183.7399733204591L287.8828213426434,209.08658551296875L289.3377780648312,149.94449039711293L290.06525642592504,99.25126601209365L290.55024199998763,40.1091708962378L291.52021314811276,175.29110258962254L292.9751698703005,40.1091708962378L294.1876338054569,99.25126601209365L296.6125616757698,149.94449039711293L298.06751839795754,40.1091708962378L299.0374895460827,166.84223185878602L299.279982333114,158.39336112794948L301.7049102034269,158.39336112794948L302.91737413858334,40.1091708962378L311.889607258741,40.1091708962378L312.85957840686615,40.1091708962378L313.1020711938975,200.6377147821322L313.34456398092874,107.70013674293017L317.70943414749195,40.1091708962378L320.61934759186744,166.84223185878602L320.8618403788987,107.70013674293017L322.3167971010865,40.1091708962378L324.01424661030546,107.70013674293017L330.319059073119,166.84223185878602L330.80404464718157,158.39336112794948L333.22897251749447,40.1091708962378L335.89639317483864,82.35352455042056L336.62387153593255,40.1091708962378L337.35134989702635,192.18884405129566L342.20120563765215,183.7399733204591L343.65616235983987,82.35352455042056L345.3536118690589,149.94449039711293L346.8085685912466,48.55804162707432L349.2334964615595,65.45578308874747L350.68845318374724,99.25126601209365L351.4159315448411,40.1091708962378L354.0833522021853,40.1091708962378L354.8108305632791,124.59787820460326L355.53830892437304,90.80239528125708L355.7808017114043,82.35352455042056L367.4204554889062,116.14900747376669L368.1479338500001,40.1091708962378L368.87541221109393,158.39336112794948L369.1179049981252,175.29110258962254L374.4527463128136,149.94449039711293L377.362659757189,40.1091708962378L377.8476453312516,65.45578308874747L378.81761647937674,124.59787820460326L379.7875876275019,40.1091708962378L380.75755877562705,40.1091708962378L386.8198784514093,82.35352455042056L387.06237123844056,124.59787820460326L389.7297918957848,73.90465381958398L391.6697341920351,107.70013674293017L392.6397053401602,48.55804162707432L393.1246909142228,200.6377147821322L395.5496187845357,175.29110258962254L397.24706829375475,40.1091708962378L400.88446009922404,175.29110258962254L401.8544312473492,40.1091708962378L407.67425813610015,192.18884405129566L407.9167509231315,209.08658551296875L411.7966355156321,73.90465381958398L412.03912830266336,40.1091708962378L414.221563385945,40.1091708962378L415.6765201081327,107.70013674293017L416.6464912562579,40.1091708962378L418.8289263395395,40.1091708962378L420.5263758487585,166.84223185878602L420.76886863578983,166.84223185878602L423.92127486719653,65.45578308874747L426.10370995047816,73.90465381958398L427.31617388563456,124.59787820460326L428.52863782079106,57.00691235791089L429.25611618188486,48.55804162707432L430.46858011704137,116.14900747376669L431.19605847813517,40.1091708962378L434.10597192251066,57.00691235791089L436.04591421876097,31.660300165401225L437.74336372798,48.55804162707432L439.440813237199,192.18884405129566L441.6232483204806,200.6377147821322L442.5932194686058,107.70013674293017L442.835712255637,90.80239528125708L443.07820504266834,57.00691235791089L443.56319061673094,40.1091708962378L444.2906689778248,166.84223185878602L445.98811848704383,65.45578308874747L448.1705535703254,40.1091708962378L450.59548144063837,82.35352455042056L451.5654525887635,90.80239528125708L452.0504381628261,107.70013674293017L452.7779165239199,57.00691235791089L453.9903804590764,158.39336112794948L454.71785882017025,57.00691235791089L454.9603516072016,48.55804162707432L455.2028443942328,73.90465381958398L459.8102073478273,99.25126601209365L461.9926424311089,31.660300165401225L463.4475991532966,183.7399733204591L465.14504866251565,40.1091708962378L465.3875414495469,57.00691235791089L467.56997653282855,40.1091708962378L469.26742604204753,99.25126601209365L472.177339486423,40.1091708962378L474.35977456970465,107.70013674293017L475.3297457178298,31.660300165401225L477.7546735881427,40.1091708962378L478.72464473626786,166.84223185878602L479.9371086714243,31.660300165401225L480.9070798195495,166.84223185878602L484.0594860509562,40.1091708962378L484.7869644120501,40.1091708962378L486.2419211342378,90.80239528125708L486.7269067083004,31.660300165401225L494.97166146736424,192.18884405129566L496.42661818955196,40.1091708962378L500.54899556908384,82.35352455042056L501.0339811431464,40.1091708962378L501.51896671720897,65.45578308874747L502.9739234393967,107.70013674293017L503.70140180049054,48.55804162707432L504.18638737455314,31.660300165401225L508.5512575411163,73.90465381958398L511.94615655955437,200.6377147821322L512.431142133617,90.80239528125708L516.7960123001801,192.18884405129566L517.7659834483053,158.39336112794948L519.7059257445555,124.59787820460326L520.6758968926807,40.1091708962378L523.1008247629937,40.1091708962378L523.8283031240875,31.660300165401225L525.2832598462753,90.80239528125708L531.1030867350262,31.660300165401225L534.0130001794016,158.39336112794948L534.2554929664329,149.94449039711293L534.9829713275268,124.59787820460326L535.2254641145581,99.25126601209365L535.7104496886207,40.1091708962378L536.1954352626833,107.70013674293017L537.1654064108085,48.55804162707432L538.1353775589336,48.55804162707432L539.3478414940901,40.1091708962378L539.8328270681526,31.660300165401225L543.470218873622,200.6377147821322L551.7149736326858,116.14900747376669L552.684944780811,40.1091708962378L553.1699303548735,166.84223185878602L554.38239429003,57.00691235791089L556.5648293733116,57.00691235791089L558.5047716695618,124.59787820460326L559.474742817687,48.55804162707432L561.8996706879999,31.660300165401225L562.3846562620624,40.1091708962378L562.8696418361251,200.6377147821322L563.1121346231564,141.49561966627638L564.0821057712815,48.55804162707432L564.8095841323753,48.55804162707432L566.7495264286257,107.70013674293017L567.7194975767508,200.6377147821322L571.1143965951889,57.00691235791089L572.5693533173766,133.04674893543984L573.7818172525331,57.00691235791089L574.0243100395643,48.55804162707432L574.5092956136269,40.1091708962378L575.2367739747208,183.7399733204591L575.7217595487833,141.49561966627638L576.206745122846,99.25126601209365L576.4492379098772,40.1091708962378L578.1466874190962,124.59787820460326L578.8741657801901,73.90465381958398L580.0866297153466,133.04674893543984L584.6939926689411,200.6377147821322L587.118920539254,183.7399733204591L588.5738772614417,40.1091708962378L590.0288339836294,124.59787820460326L590.9988051317546,73.90465381958398L591.2412979187859,31.660300165401225L593.90871857613,40.1091708962378L594.1512113631613,31.660300165401225L597.7886031686306,57.00691235791089L600.2135310389435,90.80239528125708L602.3959661222251,133.04674893543984L606.518343501757,192.18884405129566L610.8832136683203,40.1091708962378L611.1257064553515,40.1091708962378L611.610692029414,166.84223185878602L614.0356198997271,166.84223185878602L615.0055910478522,57.00691235791089L619.6129540014466,73.90465381958398L622.2803746587908,107.70013674293017L624.2203169550412,149.94449039711293L625.6752736772289,31.660300165401225L625.9177664642601,200.6377147821322L626.4027520383228,192.18884405129566L626.8877376123853,90.80239528125708L628.1002015475418,31.660300165401225L634.162521223324,158.39336112794948L634.4050140103553,65.45578308874747L636.8299418806682,48.55804162707432L637.3149274547308,31.660300165401225L638.5273913898872,107.70013674293017L641.9222904083252,107.70013674293017L643.3772471305131,175.29110258962254L645.074696639732,31.660300165401225L645.5596822137946,183.7399733204591L646.0446677878572,99.25126601209365L649.1970740192639,48.55804162707432L650.1670451673891,200.6377147821322L650.6520307414517,149.94449039711293L653.8044369728584,73.90465381958398L656.7143504172338,57.00691235791089L659.6242638616093,31.660300165401225L659.8667566486407,107.70013674293017L660.1092494356719,99.25126601209365L662.0491917319222,31.660300165401225L663.50414845411,141.49561966627638L667.626525833642,90.80239528125708" fill="none"></path></g></g></g></g></g><g><g opacity="0.0288578"><span fill="rgb(0, 0, 0)" stroke="none" stroke-width="1px">Alt + Scroll to Zoom</span></g></g></g><g transform="translate(41, 378)" clip-path="url(#clip_1)"><clipPath id="clip_1"><rect width="664" height="21"></rect></clipPath><g><g><line x1="31.325452663539682" y1="0" x2="31.325452663539682" y2="5" style="visibility: inherit;" fill="rgb(0, 0, 0)" stroke="rgb(204, 204, 204)" stroke-width="1px"></line><line x1="79.82401006979747" y1="0" x2="79.82401006979747" y2="5" style="visibility: inherit;" fill="rgb(0, 0, 0)" stroke="rgb(204, 204, 204)" stroke-width="1px"></line><line x1="128.32256747605527" y1="0" x2="128.32256747605527" y2="5" style="visibility: inherit;" fill="rgb(0, 0, 0)" stroke="rgb(204, 204, 204)" stroke-width="1px"></line><line x1="176.82112488231306" y1="0" x2="176.82112488231306" y2="5" style="visibility: inherit;" fill="rgb(0, 0, 0)" stroke="rgb(204, 204, 204)" stroke-width="1px"></line><line x1="225.31968228857087" y1="0" x2="225.31968228857087" y2="5" style="visibility: inherit;" fill="rgb(0, 0, 0)" stroke="rgb(204, 204, 204)" stroke-width="1px"></line><line x1="273.81823969482866" y1="0" x2="273.81823969482866" y2="5" style="visibility: inherit;" fill="rgb(0, 0, 0)" stroke="rgb(204, 204, 204)" stroke-width="1px"></line><line x1="322.3167971010865" y1="0" x2="322.3167971010865" y2="5" style="visibility: inherit;" fill="rgb(0, 0, 0)" stroke="rgb(204, 204, 204)" stroke-width="1px"></line><line x1="370.81535450734424" y1="0" x2="370.81535450734424" y2="5" style="visibility: inherit;" fill="rgb(0, 0, 0)" stroke="rgb(204, 204, 204)" stroke-width="1px"></line><line x1="419.31391191360206" y1="0" x2="419.31391191360206" y2="5" style="visibility: inherit;" fill="rgb(0, 0, 0)" stroke="rgb(204, 204, 204)" stroke-width="1px"></line><line x1="467.8124693198598" y1="0" x2="467.8124693198598" y2="5" style="visibility: inherit;" fill="rgb(0, 0, 0)" stroke="rgb(204, 204, 204)" stroke-width="1px"></line><line x1="516.3110267261176" y1="0" x2="516.3110267261176" y2="5" style="visibility: inherit;" fill="rgb(0, 0, 0)" stroke="rgb(204, 204, 204)" stroke-width="1px"></line><line x1="564.8095841323753" y1="0" x2="564.8095841323753" y2="5" style="visibility: inherit;" fill="rgb(0, 0, 0)" stroke="rgb(204, 204, 204)" stroke-width="1px"></line><line x1="613.3081415386332" y1="0" x2="613.3081415386332" y2="5" style="visibility: inherit;" fill="rgb(0, 0, 0)" stroke="rgb(204, 204, 204)" stroke-width="1px"></line><line x1="661.806698944891" y1="0" x2="661.806698944891" y2="5" style="visibility: inherit;" fill="rgb(0, 0, 0)" stroke="rgb(204, 204, 204)" stroke-width="1px"></line></g><g transform="translate(0, 8)"><text style="text-anchor: middle; visibility: hidden; font-family: &quot;Helvetica Neue&quot;, sans-serif; font-size: 12px; font-weight: 200;" x="31.325452663539682" y="0" dx="0em" dy="0.95em" fill="rgb(50, 49, 63)" stroke="none" stroke-width="1px">0</text><text style="text-anchor: middle; visibility: hidden; font-family: &quot;Helvetica Neue&quot;, sans-serif; font-size: 12px; font-weight: 200;" x="79.82401006979747" y="0" dx="0em" dy="0.95em" fill="rgb(50, 49, 63)" stroke="none" stroke-width="1px">200</text><text style="text-anchor: middle; visibility: hidden; font-family: &quot;Helvetica Neue&quot;, sans-serif; font-size: 12px; font-weight: 200;" x="128.32256747605527" y="0" dx="0em" dy="0.95em" fill="rgb(50, 49, 63)" stroke="none" stroke-width="1px">400</text><text style="text-anchor: middle; visibility: hidden; font-family: &quot;Helvetica Neue&quot;, sans-serif; font-size: 12px; font-weight: 200;" x="176.82112488231306" y="0" dx="0em" dy="0.95em" fill="rgb(50, 49, 63)" stroke="none" stroke-width="1px">600</text><text style="text-anchor: middle; visibility: hidden; font-family: &quot;Helvetica Neue&quot;, sans-serif; font-size: 12px; font-weight: 200;" x="225.31968228857087" y="0" dx="0em" dy="0.95em" fill="rgb(50, 49, 63)" stroke="none" stroke-width="1px">800</text><text style="text-anchor: middle; visibility: hidden; font-family: &quot;Helvetica Neue&quot;, sans-serif; font-size: 12px; font-weight: 200;" x="273.81823969482866" y="0" dx="0em" dy="0.95em" fill="rgb(50, 49, 63)" stroke="none" stroke-width="1px">1k</text><text style="text-anchor: middle; visibility: hidden; font-family: &quot;Helvetica Neue&quot;, sans-serif; font-size: 12px; font-weight: 200;" x="322.3167971010865" y="0" dx="0em" dy="0.95em" fill="rgb(50, 49, 63)" stroke="none" stroke-width="1px">1.2k</text><text style="text-anchor: middle; visibility: hidden; font-family: &quot;Helvetica Neue&quot;, sans-serif; font-size: 12px; font-weight: 200;" x="370.81535450734424" y="0" dx="0em" dy="0.95em" fill="rgb(50, 49, 63)" stroke="none" stroke-width="1px">1.4k</text><text style="text-anchor: middle; visibility: hidden; font-family: &quot;Helvetica Neue&quot;, sans-serif; font-size: 12px; font-weight: 200;" x="419.31391191360206" y="0" dx="0em" dy="0.95em" fill="rgb(50, 49, 63)" stroke="none" stroke-width="1px">1.6k</text><text style="text-anchor: middle; visibility: hidden; font-family: &quot;Helvetica Neue&quot;, sans-serif; font-size: 12px; font-weight: 200;" x="467.8124693198598" y="0" dx="0em" dy="0.95em" fill="rgb(50, 49, 63)" stroke="none" stroke-width="1px">1.8k</text><text style="text-anchor: middle; visibility: hidden; font-family: &quot;Helvetica Neue&quot;, sans-serif; font-size: 12px; font-weight: 200;" x="516.3110267261176" y="0" dx="0em" dy="0.95em" fill="rgb(50, 49, 63)" stroke="none" stroke-width="1px">2k</text><text style="text-anchor: middle; visibility: hidden; font-family: &quot;Helvetica Neue&quot;, sans-serif; font-size: 12px; font-weight: 200;" x="564.8095841323753" y="0" dx="0em" dy="0.95em" fill="rgb(50, 49, 63)" stroke="none" stroke-width="1px">2.2k</text><text style="text-anchor: middle; visibility: hidden; font-family: &quot;Helvetica Neue&quot;, sans-serif; font-size: 12px; font-weight: 200;" x="613.3081415386332" y="0" dx="0em" dy="0.95em" fill="rgb(50, 49, 63)" stroke="none" stroke-width="1px">2.4k</text><text style="text-anchor: middle; visibility: hidden; font-family: &quot;Helvetica Neue&quot;, sans-serif; font-size: 12px; font-weight: 200;" x="661.806698944891" y="0" dx="0em" dy="0.95em" fill="rgb(50, 49, 63)" stroke="none" stroke-width="1px">2.6k</text></g><line x1="0" y1="0" x2="664.641999633789" y2="0" fill="rgb(0, 0, 0)" stroke="rgb(204, 204, 204)" stroke-width="1px"></line></g></g></g></g></svg>