<svg viewBox="0 0 705.683349609375 400" xmlns="http://www.w3.org/2000/svg"><g><g><g><g><g><line x1="51.38800048828125" y1="378.0640001296997" x2="46.38800048828125" y2="378.0640001296997" style="visibility: inherit;" fill="rgb(0, 0, 0)" stroke="rgb(204, 204, 204)" stroke-width="1px"></line><line x1="51.38800048828125" y1="343.6945455724543" x2="46.38800048828125" y2="343.6945455724543" style="visibility: inherit;" fill="rgb(0, 0, 0)" stroke="rgb(204, 204, 204)" stroke-width="1px"></line><line x1="51.38800048828125" y1="309.32509101520884" x2="46.38800048828125" y2="309.32509101520884" style="visibility: inherit;" fill="rgb(0, 0, 0)" stroke="rgb(204, 204, 204)" stroke-width="1px"></line><line x1="51.38800048828125" y1="274.95563645796346" x2="46.38800048828125" y2="274.95563645796346" style="visibility: inherit;" fill="rgb(0, 0, 0)" stroke="rgb(204, 204, 204)" stroke-width="1px"></line><line x1="51.38800048828125" y1="240.586181900718" x2="46.38800048828125" y2="240.586181900718" style="visibility: inherit;" fill="rgb(0, 0, 0)" stroke="rgb(204, 204, 204)" stroke-width="1px"></line><line x1="51.38800048828125" y1="206.21672734347257" x2="46.38800048828125" y2="206.21672734347257" style="visibility: inherit;" fill="rgb(0, 0, 0)" stroke="rgb(204, 204, 204)" stroke-width="1px"></line><line x1="51.38800048828125" y1="171.84727278622717" x2="46.38800048828125" y2="171.84727278622717" style="visibility: inherit;" fill="rgb(0, 0, 0)" stroke="rgb(204, 204, 204)" stroke-width="1px"></line><line x1="51.38800048828125" y1="137.4778182289817" x2="46.38800048828125" y2="137.4778182289817" style="visibility: inherit;" fill="rgb(0, 0, 0)" stroke="rgb(204, 204, 204)" stroke-width="1px"></line><line x1="51.38800048828125" y1="103.1083636717363" x2="46.38800048828125" y2="103.1083636717363" style="visibility: inherit;" fill="rgb(0, 0, 0)" stroke="rgb(204, 204, 204)" stroke-width="1px"></line><line x1="51.38800048828125" y1="68.73890911449081" x2="46.38800048828125" y2="68.73890911449081" style="visibility: inherit;" fill="rgb(0, 0, 0)" stroke="rgb(204, 204, 204)" stroke-width="1px"></line><line x1="51.38800048828125" y1="34.36945455724543" x2="46.38800048828125" y2="34.36945455724543" style="visibility: inherit;" fill="rgb(0, 0, 0)" stroke="rgb(204, 204, 204)" stroke-width="1px"></line><line x1="51.38800048828125" y1="0" x2="46.38800048828125" y2="0" style="visibility: inherit;" fill="rgb(0, 0, 0)" stroke="rgb(204, 204, 204)" stroke-width="1px"></line></g><g transform="translate(41.38800048828125, 0)"><text style="text-anchor: end; visibility: hidden; font-family: &quot;Helvetica Neue&quot;, sans-serif; font-size: 12px; font-weight: 200;" x="0" y="378.0640001296997" dx="0em" dy="0.3em" fill="rgb(50, 49, 63)" stroke="none" stroke-width="1px">-100</text><text style="text-anchor: end; visibility: inherit; font-family: &quot;Helvetica Neue&quot;, sans-serif; font-size: 12px; font-weight: 200;" x="0" y="343.6945455724543" dx="0em" dy="0.3em" fill="rgb(50, 49, 63)" stroke="none" stroke-width="1px">0</text><text style="text-anchor: end; visibility: inherit; font-family: &quot;Helvetica Neue&quot;, sans-serif; font-size: 12px; font-weight: 200;" x="0" y="309.32509101520884" dx="0em" dy="0.3em" fill="rgb(50, 49, 63)" stroke="none" stroke-width="1px">100</text><text style="text-anchor: end; visibility: inherit; font-family: &quot;Helvetica Neue&quot;, sans-serif; font-size: 12px; font-weight: 200;" x="0" y="274.95563645796346" dx="0em" dy="0.3em" fill="rgb(50, 49, 63)" stroke="none" stroke-width="1px">200</text><text style="text-anchor: end; visibility: inherit; font-family: &quot;Helvetica Neue&quot;, sans-serif; font-size: 12px; font-weight: 200;" x="0" y="240.586181900718" dx="0em" dy="0.3em" fill="rgb(50, 49, 63)" stroke="none" stroke-width="1px">300</text><text style="text-anchor: end; visibility: inherit; font-family: &quot;Helvetica Neue&quot;, sans-serif; font-size: 12px; font-weight: 200;" x="0" y="206.21672734347257" dx="0em" dy="0.3em" fill="rgb(50, 49, 63)" stroke="none" stroke-width="1px">400</text><text style="text-anchor: end; visibility: inherit; font-family: &quot;Helvetica Neue&quot;, sans-serif; font-size: 12px; font-weight: 200;" x="0" y="171.84727278622717" dx="0em" dy="0.3em" fill="rgb(50, 49, 63)" stroke="none" stroke-width="1px">500</text><text style="text-anchor: end; visibility: inherit; font-family: &quot;Helvetica Neue&quot;, sans-serif; font-size: 12px; font-weight: 200;" x="0" y="137.4778182289817" dx="0em" dy="0.3em" fill="rgb(50, 49, 63)" stroke="none" stroke-width="1px">600</text><text style="text-anchor: end; visibility: inherit; font-family: &quot;Helvetica Neue&quot;, sans-serif; font-size: 12px; font-weight: 200;" x="0" y="103.1083636717363" dx="0em" dy="0.3em" fill="rgb(50, 49, 63)" stroke="none" stroke-width="1px">700</text><text style="text-anchor: end; visibility: inherit; font-family: &quot;Helvetica Neue&quot;, sans-serif; font-size: 12px; font-weight: 200;" x="0" y="68.73890911449081" dx="0em" dy="0.3em" fill="rgb(50, 49, 63)" stroke="none" stroke-width="1px">800</text><text style="text-anchor: end; visibility: inherit; font-family: &quot;Helvetica Neue&quot;, sans-serif; font-size: 12px; font-weight: 200;" x="0" y="34.36945455724543" dx="0em" dy="0.3em" fill="rgb(50, 49, 63)" stroke="none" stroke-width="1px">900</text><text style="text-anchor: end; visibility: hidden; font-family: &quot;Helvetica Neue&quot;, sans-serif; font-size: 12px; font-weight: 200;" x="0" y="0" dx="0em" dy="0.3em" fill="rgb(50, 49, 63)" stroke="none" stroke-width="1px">1e+3</text></g><line x1="51.38800048828125" y1="0" x2="51.38800048828125" y2="378.0640001296997" fill="rgb(0, 0, 0)" stroke="rgb(204, 204, 204)" stroke-width="1px"></line></g></g><g transform="translate(51, 0)" clip-path="url(#clip_0)"><clipPath id="clip_0"><rect width="654" height="378"></rect></clipPath><g><g><g><line x1="0" y1="0" x2="0" y2="378.0640001296997" fill="rgb(0, 0, 0)" stroke="rgb(60, 60, 60)" stroke-width="1px" opacity="0.25"></line><line x1="72.69944439019096" y1="0" x2="72.69944439019096" y2="378.0640001296997" fill="rgb(0, 0, 0)" stroke="rgb(60, 60, 60)" stroke-width="1px" opacity="0.25"></line><line x1="145.39888878038192" y1="0" x2="145.39888878038192" y2="378.0640001296997" fill="rgb(0, 0, 0)" stroke="rgb(60, 60, 60)" stroke-width="1px" opacity="0.25"></line><line x1="218.09833317057291" y1="0" x2="218.09833317057291" y2="378.0640001296997" fill="rgb(0, 0, 0)" stroke="rgb(60, 60, 60)" stroke-width="1px" opacity="0.25"></line><line x1="290.79777756076385" y1="0" x2="290.79777756076385" y2="378.0640001296997" fill="rgb(0, 0, 0)" stroke="rgb(60, 60, 60)" stroke-width="1px" opacity="0.25"></line><line x1="363.4972219509549" y1="0" x2="363.4972219509549" y2="378.0640001296997" fill="rgb(0, 0, 0)" stroke="rgb(60, 60, 60)" stroke-width="1px" opacity="0.25"></line><line x1="436.19666634114583" y1="0" x2="436.19666634114583" y2="378.0640001296997" fill="rgb(0, 0, 0)" stroke="rgb(60, 60, 60)" stroke-width="1px" opacity="0.25"></line><line x1="508.8961107313368" y1="0" x2="508.8961107313368" y2="378.0640001296997" fill="rgb(0, 0, 0)" stroke="rgb(60, 60, 60)" stroke-width="1px" opacity="0.25"></line><line x1="581.5955551215277" y1="0" x2="581.5955551215277" y2="378.0640001296997" fill="rgb(0, 0, 0)" stroke="rgb(60, 60, 60)" stroke-width="1px" opacity="0.25"></line><line x1="654.2949995117187" y1="0" x2="654.2949995117187" y2="378.0640001296997" fill="rgb(0, 0, 0)" stroke="rgb(60, 60, 60)" stroke-width="1px" opacity="0.25"></line></g><g><line x1="0" y1="378.0640001296997" x2="654.2949995117187" y2="378.0640001296997" fill="rgb(0, 0, 0)" stroke="rgb(60, 60, 60)" stroke-width="1px" opacity="0.25"></line><line x1="0" y1="343.6945455724543" x2="654.2949995117187" y2="343.6945455724543" fill="rgb(0, 0, 0)" stroke="rgb(60, 60, 60)" stroke-width="1px" opacity="0.25"></line><line x1="0" y1="309.32509101520884" x2="654.2949995117187" y2="309.32509101520884" fill="rgb(0, 0, 0)" stroke="rgb(60, 60, 60)" stroke-width="1px" opacity="0.25"></line><line x1="0" y1="274.95563645796346" x2="654.2949995117187" y2="274.95563645796346" fill="rgb(0, 0, 0)" stroke="rgb(60, 60, 60)" stroke-width="1px" opacity="0.25"></line><line x1="0" y1="240.586181900718" x2="654.2949995117187" y2="240.586181900718" fill="rgb(0, 0, 0)" stroke="rgb(60, 60, 60)" stroke-width="1px" opacity="0.25"></line><line x1="0" y1="206.21672734347257" x2="654.2949995117187" y2="206.21672734347257" fill="rgb(0, 0, 0)" stroke="rgb(60, 60, 60)" stroke-width="1px" opacity="0.25"></line><line x1="0" y1="171.84727278622717" x2="654.2949995117187" y2="171.84727278622717" fill="rgb(0, 0, 0)" stroke="rgb(60, 60, 60)" stroke-width="1px" opacity="0.25"></line><line x1="0" y1="137.4778182289817" x2="654.2949995117187" y2="137.4778182289817" fill="rgb(0, 0, 0)" stroke="rgb(60, 60, 60)" stroke-width="1px" opacity="0.25"></line><line x1="0" y1="103.1083636717363" x2="654.2949995117187" y2="103.1083636717363" fill="rgb(0, 0, 0)" stroke="rgb(60, 60, 60)" stroke-width="1px" opacity="0.25"></line><line x1="0" y1="68.73890911449081" x2="654.2949995117187" y2="68.73890911449081" fill="rgb(0, 0, 0)" stroke="rgb(60, 60, 60)" stroke-width="1px" opacity="0.25"></line><line x1="0" y1="34.36945455724543" x2="654.2949995117187" y2="34.36945455724543" fill="rgb(0, 0, 0)" stroke="rgb(60, 60, 60)" stroke-width="1px" opacity="0.25"></line><line x1="0" y1="0" x2="654.2949995117187" y2="0" fill="rgb(0, 0, 0)" stroke="rgb(60, 60, 60)" stroke-width="1px" opacity="0.25"></line></g></g></g><g><g><line x1="0" y1="343.6945455724543" x2="654.2949995117187" y2="343.6945455724543" fill="rgb(0, 0, 0)" stroke="rgb(153, 153, 153)" stroke-width="1.5px"></line></g></g><g><g><line x1="72.69944439019096" y1="0" x2="72.69944439019096" y2="378.0640001296997" fill="rgb(0, 0, 0)" stroke="rgb(153, 153, 153)" stroke-width="1.5px"></line></g></g><g><g><g><g><g><path style="fill: none;" stroke="rgb(255, 112, 67)" stroke-width="2px" d="M73.32465961194661,323.62819314658054L73.36827927858073,326.12793355874135L73.74631638940971,323.79718105691745L74.0807338336046,319.09094664684403L75.01128672179904,316.59001363519087L75.14214572170138,311.75937522412335L76.04361883213976,315.6968986157998L76.11631827652994,310.1222306372707L76.42165594296875,311.68827375739545L76.68337394277343,310.42252216736745L77.19227005350477,310.954273500858L77.22134983126085,307.3892725382743L77.33766894228515,303.42900790267856L78.8352774967231,299.5717560593785L79.40233316296657,295.8398359423049L79.60589160725912,300.198080203777L80.50736471769748,304.1343029230061L81.13257993945312,307.5971126795927L81.2343591615994,307.0986857942786L81.93227382774523,306.71179072893324L82.12129238315971,309.79096072832135L82.47024971623263,312.44273424144893L83.09546493798828,308.8300564362807L83.21178404901259,305.3364290451318L83.92423860403646,307.722795842643L84.127797048329,309.82459119822454L84.37497515925564,309.79545298365554L84.46221449252387,307.74829591997224L84.86933138110894,308.50659815575295L86.4541792688151,309.83700186193937L86.8322163796441,310.7092457017337L87.45743160139973,311.2560392776132L88.21350582305773,312.7915131167123L88.76602160042317,311.85501337412285L89.87105315515409,307.60015714523615L91.04878415427518,303.52608732163947L91.84847804256727,299.9065178680062L91.8920977092014,297.5231588226218L92.09565615349392,295.50497965797797L92.15381570900607,292.83989859724926L92.8517303751519,291.35942969088654L92.95350959729818,290.1343621314437L93.59326470793185,288.0756846575521L94.02946137427301,289.64741591385837L94.85823504032119,293.1632162835068L95.27989181778428,290.37836470262323L95.51253003983291,290.26768163807066L95.74516826188152,287.5373464539432L96.55940203905165,285.35143962769934L97.30093637183158,283.00441188254734L97.56265437163628,282.2812904522062L97.69351337153863,280.81418064997786L97.92615159358724,279.4154418955263L97.96977126022135,278.4903894998666L98.60952637085502,277.7989656302532L99.52553937017144,275.4423919122799L99.8454169254883,281.5504350721763L99.8890365921224,278.4200195533512L100.0053557031467,276.4692392853844L100.58695125826823,274.7258170297268L100.83412936919488,272.47840598987943L101.02314792460938,278.187777558875L102.31719803475478,282.7067106291997L103.18959136743706,279.55309121607786L104.51272125533855,277.2386438518044L104.687199921875,273.88789045888694L105.15247636597222,274.149679524259L105.23971569924046,271.84616624699936L105.53051347680122,269.7321904991819L105.6032129211914,267.2984617576542L106.25750792070312,267.50066849445534L106.43198658723958,265.9559020939496L106.94088269797092,265.02707852609666L107.44977880870225,265.33783573017206L107.4643186975803,264.0429178542573L108.13315358597005,263.4643122499943L108.3803316968967,266.7060987114106L108.40941147465277,272.3473275325814L108.48211091904297,270.51181008343866L108.84560814099393,268.7879161343925L108.86014802987197,266.6045080056029L109.03462669640842,265.24434339090936L109.1073261407986,264.0412392152217L109.52898291826172,261.9776697090493L109.74708125143229,260.3693416942664L109.83432058470052,258.72091616679546L111.75358591660157,266.2081186554694L112.55327980489366,264.1485364084373L113.26573435991753,266.0919800959117L114.82150246986762,263.544299437022L115.85383458020834,261.37263194993375L116.49358969084201,260.55844752158436L116.88616669054905,266.2986158173746L116.92978635718315,262.80794883370766L117.77309991210937,260.42262559488347L118.67457302254775,262.5628874194447L119.18346913327908,261.03430951166797L119.67782535513237,257.3951541560315L119.88138379942492,263.6474151659867L119.91046357718099,259.75663548360535L119.92500346605902,255.96269359449613L120.76831702098525,252.24185846659918L123.31279757464193,249.18687157221177L125.0575842400065,245.8229620434369L125.3193022398112,244.3963089735985L125.34838201756727,242.67168441050345L126.07537646146918,240.7309701077303L126.88961023863934,238.7704393590183L127.1077085718099,237.3221845560901L127.86378279346788,235.97195815952105L128.16912045990668,233.38238489388735L128.27089968205294,232.76974034782475L129.82666779200304,231.78049329920484L130.23378468058812,239.7044569329676L130.64090156917317,238.03648022972757L131.39697579083116,237.25672825788624L132.29844890126952,235.03957613459818L133.72335801131726,231.77891008362175L134.17409456653647,228.60353081100067L134.24679401092664,233.70530942464688L135.2936660101454,230.14815146142848L135.4826845655599,227.3924874719085L135.51176434331597,236.72155876780357L136.68949534243706,233.458912687304L138.0271651192166,237.83352603572513L138.27434323014324,234.93777412546143L138.57968089658203,231.98082982191798L140.00459000662977,240.43915962874712L140.52802600623914,235.98822157320652L140.5861855617513,232.7007785871039L140.7025046727756,229.4004490387734L141.77845644975042,226.47574342222944L142.3309722271159,233.0031395565341L142.53453067140842,229.64904958450578L143.08704644877386,226.013507818481L143.26152511531032,222.45526786448045L143.87220044818793,219.5424376399082L144.86091289189454,215.75099980245594L144.99177189179687,213.76502336920566L145.035391558431,212.7303811577556L146.1404231131619,211.05482859128566L146.16950289091795,209.4138530211887L146.95465689033202,207.40306134282017L147.3617737789171,204.9222111100913L148.88846211111112,202.7977006119758L150.19705211013456,201.45311536221885L150.42969033218316,202.64195981755532L150.63324877647568,201.9610805281797L151.520181998036,201.26807833135652L152.9305512192057,199.4315968311155L153.39582766330295,197.14199099201505L155.06791488427734,195.29494640383254L155.28601321744793,198.30893052429903L155.9257683280816,197.7834645136735L157.16165888271485,203.97379856031577L157.4088369936415,201.32702615176686L157.4524566602756,207.59890724819886L157.97589265988498,205.54252692384384L158.07767188203127,202.74717277887865L158.60110788164062,199.45945839075316L158.90644554807943,196.2689264347227L159.8079186585178,196.80501167368936L160.09871643607858,194.7044680265865L161.7126441015408,192.4398838882326L161.85804299032117,190.89031541930942L162.86129532290582,189.40359027699773L163.0503138783203,186.64281528929834L163.13755321158854,185.66675010373808L163.32657176700303,185.7617161276689L164.15534543305122,202.31520390450532L164.4897628772461,199.7243436176702L164.5624623216363,194.70196064688454L165.42031576544053,191.08171282664563L165.76927309851345,186.871214462007L167.16510243080512,186.31838074958333L167.51405976387804,184.41648740030914L168.2992137632921,182.88569174826438L168.72087054075521,181.65706489284966L169.50602454016928,180.04219611302008L170.07308020641278,178.4736997591151L170.11669987304688,175.61219273471335L170.2911785395833,173.80402024027137L170.74191509480252,172.23390631301274L172.2540635381185,177.92859516651967L172.37038264914278,179.3643741822675L172.58848098231337,196.4929097682097L173.99885020348307,190.29945398468496L174.37688731431206,184.1052938241821L174.6967648696289,183.2906138477405L176.0344346464084,181.67881015379203L176.1507537574327,176.70023514542575L176.74688920143228,179.33316364339714L177.6338224229926,176.4804121275784L178.08455897821182,171.63668005194774L179.01511186640624,168.30545544055946L179.4222287549913,166.64891441210025L179.43676864386936,167.28168805192462L179.71302653255208,167.60681026538032L180.04744397674696,178.283392362369L180.32370186542968,175.00227853709686L181.03615642045355,173.0791103176628L181.18155530923394,172.01316634585288L181.22517497586804,168.54754277407474L181.44327330903863,176.6765688521647L181.92308964201388,173.2489964215608L184.48211008454862,169.43874060126848L184.56934941781685,166.17768126892884L185.54352197264538,163.2152760470609L185.95063886123046,182.4339694126861L186.09603775001085,176.52992950758326L186.6049338607422,194.069081899687L187.57910641557075,208.8521866308662L188.04438285966796,214.7332331195018L188.9022363034722,205.2512212255511L189.41113241420356,197.85086873360507L189.74554985839842,208.65407240945217L189.9927279693251,207.24331918304458L191.65027530142146,198.35506694753616L192.15917141215277,191.5257347974875L192.246410745421,184.7775365013717L193.24966307800563,180.33197537373516L193.88941818863933,175.42310143521405L194.31107496610244,168.93886697764387L194.38377441049263,164.3013820698136L194.51463341039496,158.82260654215648L195.8232234094184,165.1255170170062L195.8668430760525,180.87180248212698L196.27395996463758,174.0970836875086L196.41935885341798,168.46241900068148L197.26267240834417,163.5053115280622L197.77156851907554,159.58093783010645L198.25138485205076,155.12240417491262L198.26592474092882,152.94893020644832L199.1383180736111,149.01217865130096L200.94126429448784,143.98436995856707L200.98488396112197,145.01390592384777L201.7991177382921,142.61675070077396L202.17715484912108,159.67060817721818L202.2207745157552,156.8513862120979L202.526112182194,152.5278224152437L202.6278914043403,148.6100814258629L203.47120495926652,144.94333293660284L203.55844429253472,142.4002490168857L204.37267806970485,138.38771214695683L206.8589990678494,159.15733711676037L206.96077828999566,153.9769534371865L207.35335528970268,165.0356721300892L208.16758906687284,160.94768507670526L208.63286551097005,155.2230890193151L209.5634183991645,149.22429810664391L209.6070380657986,144.05947649642206L209.89783584335936,140.25179435259486L210.37765217633464,135.56391498118953L211.52630339769965,131.8760862118377L211.6280826198459,130.43410131983808L211.8171011752604,141.2562058561177L212.13697873057728,137.8545706768976L212.6894945079427,133.4605923729549L213.12569117428384,150.61350871141374L213.46010861847873,146.60427591911017L213.72182661828342,142.31539779290466L214.73961883974607,137.16070026975316L215.83011050559895,132.54899344748904L216.7606633937934,128.05255922051356L217.70575617086587,126.91566665368538L218.95618661437717,147.70516327927015L219.33422372520616,142.84593714137623L220.55557439096137,137.60490841360775L222.1258823897895,158.8540345114331L222.2276616119358,173.66551237878866L223.87066905515408,166.91696250888748L223.91428872178818,157.7233207411146L224.219626388227,150.1979517560616L225.07747983203123,144.67436162014616L225.22287872081162,140.93981356435324L225.28103827632378,134.85327116509794L225.7026950537869,155.74113999936174L226.18251138676214,148.47293958900255L226.93858560842014,141.50041597905602L227.18576371934677,135.8981938519589L227.38932216363935,131.06837899584718L227.62196038568794,126.33942394733526L227.8691384966146,124.32086127838926L228.4507340517361,121.00990677797603L229.11956894012584,119.48487682089075L229.1341088290039,142.0145433649568L229.45398638432073,135.7695476240827L229.96288249505207,144.82623468650252L230.10828138383246,163.76294073343428L230.34091960588108,163.75598787525962L230.47177860578344,154.87197428176546L230.67533705007597,147.43134479205474L231.2278528274414,142.1485138071114L231.2714724940755,152.2940553724573L231.76582871592882,143.93989365193315L231.82398827144098,149.12381912892457L232.15840571563584,152.11362646651304L232.2456450489041,150.8991629401544L232.27472482666013,144.8819828981122L232.85632038178167,137.9706935240663L232.94355971504993,131.6190975034015L233.13257827046442,152.839370070479L233.2052777148546,146.44996550925893L234.13583060304904,149.37092788174303L234.41208849173177,142.03773798703764L234.5429474916341,136.288298345549L235.19724249114583,130.02253811597632L235.5316599353407,151.40035952445507L235.5607397130968,157.25646347976226L235.5752796019748,148.3342365961671L236.43313304577907,141.29622634724703L238.74497537738714,139.29229992136317L239.51558948792317,132.41322182208359L239.80638726548395,127.06312629188062L240.25712382070313,127.70235417716103L240.38798282060546,124.47675640692663L240.6351609315321,124.86381007630445L240.88233904245877,122.22657940659062L241.33307559767792,117.01256274203104L242.0746099304579,132.74932784691066L242.40902737465277,126.39982685080369L242.61258581894532,146.74575459256576L243.68853759592014,138.79769393645313L245.3460849280165,138.13691123241176L246.74191426030816,131.30108182376267L246.81461370469836,127.31236994004269L247.3380497043077,123.2970406246989L247.78878625952692,118.77151595367394L249.19915548069662,114.97751847910376L249.5771925915256,110.63795358852855L249.63535214703776,107.60019799445769L249.86799036908636,103.58118705299819L250.478665701964,99.32830466627797L251.40921859015842,96.16197326413334L251.45283825679252,93.6568809006655L251.68547647884114,113.34329639520763L253.0813058111328,108.11921874933637L253.8519199216688,106.06800001971897L255.23320936508244,102.8454892826245L256.948916252691,99.96995218024705L257.35603314127604,98.02027561399836L258.21388658508033,94.06911744243416L258.89726136234805,92.56380235205489L259.94413336156686,91.06909525400397L260.2203912502496,89.51175866502064L260.8456064720052,87.069140568242L261.136404249566,98.16402130911297L261.97971780449217,93.49181519417084L262.2268959154188,91.04576667905962L262.61947291512587,87.95791386375737L262.92481058156466,85.1795780735248L263.0992892481011,83.41068047097599L263.3173875812717,84.28391853463711L263.37554713678384,92.22266991990602L263.6227252477105,89.2738301094119L264.14616124731987,85.8416057090347L264.72775680244143,83.86029093799647L265.2075731354167,82.27164864066873L266.8069609120009,83.8300560593866L267.5775750225369,83.91172452375787L267.63573457804904,83.4641601907066L267.9265323556098,81.43157980564393L268.63898691063366,78.56828853029401L269.0606436880968,77.48126270041024L269.6713190209744,79.03189486468426L270.4128533537543,80.31901800916125L270.7472707979492,78.58084036965028L271.60512424175346,76.25507196016815L271.6487439083876,74.52257647284193L272.5938366854601,73.47027330032313L273.0154934629232,72.8758773028959L273.5098496847765,72.74715741068547L274.0187457955078,72.63498639708018L274.3531632397027,70.58992356209512L274.5858014617513,69.79001430679733L275.6472133498481,68.11614064554033L275.9234712385308,66.25088072000568L276.24334879384764,64.73192739372473L277.4356196818468,63.69961098999897L279.48574401365016,61.81050262096693L280.4453766796007,62.48573594133592L280.5471559017469,64.20635605821758L280.6780149016493,68.2330418925124L280.92519301257596,68.59613795486007L281.0996716791124,66.88225924175606L281.1869110123806,65.30654190229984L282.0447644561849,64.61985592703485L282.7717589000868,64.05963640290906L283.4551336773546,64.1437045350716L283.97856967696396,65.5549983724232L284.3275270100369,64.53265495023612L284.371146676671,63.814341869963926L285.4616383425239,65.18102821533233L285.5488776757921,65.66429384215166L285.98507434213326,89.31533979657831L286.1159333420356,116.5630316024675L286.1740928975477,109.46618915497305L286.261332230816,102.59177906478567L287.59900200759546,102.00538600891838L287.6135418964735,110.1641884350775L287.72986100749785,106.81917019239603L287.78802056301,101.21677846083577L288.03519867393663,97.60136150933522L288.96575156213106,93.02883864192194L289.2420094508138,87.94841060729317L289.7363656726671,93.70084489675526L291.20489444934896,88.7742730067767L292.1209074486654,89.70535391493286L292.7897423370551,116.56296796918804L293.4294974476888,109.41342705579251L293.7057553363715,106.0543865388833L294.67992789120007,101.3149926439583L295.5232414461263,94.73265864154433L295.8576588903212,121.1446312894609L297.0353898894423,113.91436145455191L297.689684888954,107.0192919565028L297.71876466671006,103.06807037946822L298.1840411108073,96.86950148587852L298.6347776660265,92.14752855653228L299.4926311098307,115.83891504306735L301.5718352193902,108.54022638541966L301.9207925524631,103.31094333681642L302.05165155236546,127.35967787767473L302.13889088563366,119.85552851436177L302.8077257740234,143.72275003521486L302.85134544065755,133.84107134875114L303.1276033293403,124.77600342818829L305.0468686612413,138.09888894868155L305.25042710553384,130.61886345885625L306.7334957710937,128.2997130415749L307.03883343753256,121.49333575854911L308.0857054367513,118.2059754710084L308.9726386583116,110.67354453577423L310.01951065753036,105.61814251375267L310.3393882128472,130.86650456046812L310.58656632377387,122.62379960304531L311.25540121216363,114.91600323190681L311.7497574340169,107.39838096029331L312.69485021108943,100.80946533318274L313.48000421050347,96.05826044039429L313.85804132133245,95.60207081846005L313.93074076572265,91.41438716609679L314.9630728760634,86.50476668516632L315.4865088756727,91.06084680859851L316.1989634306966,110.83738574750964L317.10043654113497,104.91557712725523L317.11497643001303,98.55572237041395L317.6093326518663,94.29981313781099L317.81289109615886,119.7676937088624L318.4235664290365,112.55257293334358L320.85172787166886,105.64900856555494L321.302464426888,101.03198758039224L321.7968206487413,95.17817489510196L322.68375387030164,93.61903419819186L322.82915275908204,88.86162746328921L323.3671286475695,86.74221617505901L323.48344775859374,114.13077856332075L323.84694498054466,107.43682681092304L324.1086629803494,102.7156947272668L324.13774275810545,96.15746579487109L324.47216020230036,90.97288550168128L324.48670009117836,86.13082516945616L324.5012399800564,82.43383852216886L324.5448596466905,78.56674638000476L324.8211175353733,79.13632626961021L325.3300136461046,77.8107517616009L325.7807502013238,76.35121753977643L326.08608786776256,73.1432296974798L326.3478058675673,72.49713931050883L326.49320475634767,70.12350273928519L327.787254866493,67.55933879984008L327.9908133107856,66.41421284550222L328.2816110883464,74.49951303695087L328.4124700882487,72.34563389274547L328.514249310395,70.03413395966078L328.528789199273,68.00332210540057L328.9504459767361,66.63817463441893L329.0958448655165,66.7664853146166L329.38664264307727,65.36959647447048L330.38989497566195,63.09498540103061L331.10234953068573,61.84321842687456L331.58216586366103,62.49990626961596L332.1346816410265,61.87988512142584L333.74860930648873,92.06622372067875L334.11210652843965,87.72185239687394L334.1557261950738,83.0698009447068L334.2865851949761,79.41481047827807L334.69370208356116,76.40229251227748L335.2025981942926,73.12764735507193L335.377076860829,73.19382047677618L335.9441325270725,69.92047140337957L336.3076297490234,97.18348510742459L336.55480785995013,91.49971328938375L337.54352030365663,86.18342659352203L337.86339785897354,83.96886469141555L338.2705147475586,79.91390461761864L339.05566874697263,76.06008687165615L340.98947396775174,72.78254511904078L341.00401385662974,69.25767318298261L342.3853033000434,68.06532996599782L343.0395982995551,67.36927393894604L344.79892485379776,65.2230559653961L344.900704075944,63.32573736008328L346.7181901856988,61.97336301616241L347.41610485184464,61.36006759413402L348.3611976289171,62.08641688103296L348.63745551759985,61.40826978078678L348.71015496199,60.7587898130696L349.0445724061849,59.48656930825291L349.3644499615017,57.95594164187196L349.66978762794054,59.953222970572995L350.65850007164715,59.63681452795083L351.4291141821831,60.10035772318042L352.27242773710935,58.59402923045627L352.912182847743,57.6122436613212L352.9703424032552,56.25991027881241L353.3338396252061,55.198233979615736L356.02371906764324,54.61940263710159L356.2418174008138,54.95556821656254L356.2854370674479,73.3344615152235L356.60531462276475,70.78236347060641L356.69255395603295,67.80477711248955L357.39046862217884,70.23185868165933L357.6085669553494,67.70895721454843L358.2774018437392,65.81741212099325L358.48096028803167,65.81775545859239L358.6408990656901,63.704637655655176L358.77175806559245,61.94772825368602L359.4405929539822,60.44626262052401L359.6005317316406,59.4366226337408L359.6877710649088,60.14244872203403L360.5456245087131,58.76634261561759L360.93820150842015,58.89729401586578L361.272618952615,57.62812371036739L362.2904111740777,56.045427451173964L362.61028872939454,55.54409334901129L363.09010506236973,54.9387283231282L363.33728317329644,62.55784724050011L363.4390623954427,62.08923646948318L364.02065795056427,61.07601536926006L364.2096765059788,59.32792641628464L364.28237595036893,69.68385332509052L364.36961528363713,66.59648121592903L364.41323495027126,66.85023858850144L365.5182665050022,68.88632610786442L365.5328063938802,96.44605744637613L365.56188617163633,91.72667771096758L366.1725615045139,87.41377890729797L366.21618117114804,114.14563167375218L366.6669177263672,137.60483657002945L367.05949472607426,129.10230889593973L367.10311439270833,119.19474168967918L367.17581383709853,111.44497415809775L367.9900476142687,104.62251947757682L368.2081459474392,98.53449375472422L368.33900494734155,104.18465794452192L368.3680847250976,97.48265172152765L369.0805392801215,92.52570779533676L369.9093129461697,88.21134214926025L370.5636079456814,83.87565871115959L371.159743389681,80.40599464755178L371.34876194509553,77.58067623607167L371.3633018339735,74.10779488441966L371.6831793892904,101.52629293283223L371.7558788336805,95.347571901386L371.915817611339,91.262870739466L373.52974527680124,87.60754597465535L373.83508294323997,82.47765670406221L374.8237953869466,78.01800207634898L374.83833527582465,74.80050462504516L374.8819549424588,71.20724565165887L374.89649483133684,68.29870567034249L375.5944094974827,77.05512708488982L375.94336683055553,73.32784824481274L376.42318316353084,69.53309948360328L376.78668038548176,68.86006782361545L377.8626321624566,67.48165194736208L378.44422771757814,65.21392348668627L378.5605468286024,62.95622188387017L379.0258232726996,93.04867932176256L379.2148418281141,87.38129352449818L380.14539471630854,84.87420813733894L381.0904874933811,79.99299503060917L381.42490493757595,76.27134449964223L382.64625560333116,72.18586854599056L382.6898752699653,69.68253085249472L382.7625747143554,67.01774378882322L383.736747269184,94.84328617800332L383.9984652689887,88.63569529362752L385.08895693484163,83.13119714820886L385.656012601085,78.47403841214151L385.6705524899631,75.80079602262322L387.9533150438151,73.19298927609236L388.5639903766927,76.95721176509494L388.57853026557075,72.84285440574354L389.52362304264324,69.59338089127698L389.6108623759115,67.33444107115844L389.90166015347216,64.93696311706964L389.9888994867405,62.786837530207094L390.29423715317927,61.15134934583239L390.38147648644747,69.47211633466424L391.2538698191298,66.40526422680568L392.111723262934,63.91837682997698L392.57699970703123,61.59478112482071L392.6787789291775,61.170734499930234L395.7903151490777,59.572437098199146L396.15381237102866,57.99119410637792L396.3428309264432,56.97872428500102L396.7354079261502,55.79788009015226L396.83718714829644,54.90045384449775L396.9971259259549,53.25401885840273L397.06982537034503,51.90094641941903L397.1861444813694,50.83698082263146L397.3897029256619,50.099513558509216L397.79681981424693,50.60488444210773L398.8000721468316,49.6098274069405L398.8436918134657,49.194586153393516L399.4543671463433,48.078315137238974L399.96326325707463,46.9573682720162L400.50123914556207,47.010560890432544L401.82436903346354,48.86607838729009L402.05700725551213,47.8799168963115L403.61277536546226,48.490646903666914L403.7145545876085,47.35301181118297L403.889033254145,50.138613161211936L404.6305675869249,79.0458405113352L404.79050636458334,76.33051766208615L404.80504625346134,76.5306874433137L406.11363625248475,72.66006437616386L406.1572559191189,70.3153275347621L408.29461958419057,74.27954652382249L408.35277913970265,70.61244205231492L408.3673190285807,68.10783209560788L408.61449713950736,65.26619396516986L408.83259547267795,65.41320164228682L408.97799436145834,94.53547606036568L409.1379331391168,88.73911958637876L409.21063258350694,114.86083631167645L409.2833320278972,106.84097777852867L409.42873091667747,99.52839914812512L409.77768824975044,93.12788195112586L409.92308713853083,87.3168334597915L410.3011242493598,83.36268924793535L410.9554192488715,78.91353914542418L411.28983669306643,77.85252454038579L412.0313710258464,74.0296117104798L412.38032835891926,72.99617808704318L412.656586247602,69.44188574543307L412.8601446918945,67.06571962921822L413.3399610248698,64.75502246287567L414.98296846808813,62.035458640277454L415.69542302311197,60.97932008495201L416.87315402223305,59.11735479252519L417.0330927998915,57.36662721324598L417.32389057745223,55.35290893094259L418.1962839101346,54.34636205188809L418.38530246554905,53.42939554160961L418.9232783540364,66.97551666437255L419.2140761315972,64.36278548953146L419.3740149092556,61.5935851642264L420.62444535276694,59.85301568681075L420.76984424154733,59.97300927003653L422.8199685733507,58.4271050157198L423.3579444618381,57.50812673303653L423.3870242395942,56.36983875564806L423.8086810170573,55.501459568201426L424.3757366833008,69.39604892508515L425.07365134944655,65.97921941619336L425.7715660155925,63.50978796150798L425.8006457933485,62.47915197538879L425.9169649043728,64.75369325457137L426.35316157071395,84.86674182910775L426.68757901490886,80.20873825839237L426.8911374592014,75.83593628198042L427.71991112524955,73.75470947767298L429.1157404575412,87.41390356363809L429.7700354570529,82.39153259318311L429.8281950125651,77.95202541755611L430.7005883452474,73.71542429209921L431.3694232336372,71.9808974308969L431.8056198999783,95.53264059862971L432.1254974552951,121.80095222212947L432.2418165663194,113.53890913642988L434.0156830094401,105.63576087964418L434.45187967578124,98.81625539488175L434.7717572310981,96.2813460342166L435.2515735640734,90.36304143902515L435.6732303415365,85.84717189024855L436.3275253410482,81.05945163631799L436.8945810072916,77.41582382858928L438.145011450803,74.43775170212331L439.20642333889975,71.02253081263206L439.5699205608507,67.7758567447317L439.7589391162652,67.16003899289547L439.8897981161675,64.3966162883363L441.0384493375326,81.56885803194496L441.8963027813368,79.03835767493996L443.55385011343316,75.23244300098378L443.77194844660374,72.17651822686258L444.5280226682617,69.62222773816842L444.92059966796876,76.96451891846783L445.8220727784071,74.70854819462369L446.18557000035804,72.22919696914903L447.4796201105035,69.32878889054183L448.0175959989909,66.91447816042358L448.5264921097222,71.25058906629602L449.00630844269745,68.31427898570905L449.602443886697,65.53614508747211L451.1727518855252,92.05303383230046L451.4053901075738,86.52315429288865L451.7107277740126,95.39984313183027L451.8415867739149,90.74418570375497L452.0742249959635,97.77817290497268L452.99023799528,122.05085872443613L453.00477788415793,116.51980240124817L453.2083363284505,107.86815672978923L454.8077241050347,113.85517779262318L454.99674266044923,137.09631721172016L455.1566814381076,138.08299741830623L456.6106703259114,128.82717293452453L457.58484288074,149.87792877275027L458.1955182136176,143.72688221318472L460.49282065634765,132.32400347580472L461.71417132210286,123.55219573981648L461.7432510998589,115.40740134578124L462.3248466549805,107.18332225488689L462.33938654385855,100.21293338939199L462.3539264327365,94.0255367484416L462.58656465478515,88.37073875047861L462.7755832101996,83.47296435216725L462.80466298795574,79.36815275546985L464.24411198688153,76.88410390903164L466.42509531858724,73.62275665174269L467.35564820678167,70.21084224229793L467.44288754004987,67.68110165034273L467.5301268733182,68.57154434954293L467.58828642883026,95.72380873101389L467.6028263177083,89.72731771200876L468.6933179835612,84.8196950780827L469.2749135386827,80.58635051515267L470.0746074269748,76.28731097982563L471.659455314681,74.23119203658672L471.81939409233945,72.31913411562692L471.9357132033637,93.44304062973185L472.63362786950955,102.87716090542261L472.98258520258247,96.3918019815867L473.564180757704,91.15267929814695L473.60780042433805,86.0053441337779L474.0585369795573,96.12108473759281L474.2039358683377,90.4309651481592L474.3057150904839,84.84594073799252L474.56743309028866,79.77423681752737L475.39620675633677,75.7934926939597L475.68700453389755,86.00475840830097L475.7306242005317,87.22524451272966L476.03596186697047,82.47526908604766L477.2863923104818,77.92603442787083L478.6095221983832,74.84344571293991L478.63860197613934,71.28074357801927L479.1038784202366,97.64495425638631L479.36559642004124,92.33596487121946L483.48038497252605,86.55729150821708L483.85842208335504,82.90406954176115L484.4981771939887,79.07794259218844L485.2978710822808,77.14640273908577L486.1993441927192,103.92355552268339L486.3883627481337,97.14986608697296L487.7260325249132,90.61069907660675L488.1476893023763,87.52915363608832L488.7147449686198,84.36204058264991L489.6598377456923,87.65844868169859L492.7859138544705,83.30439936783421L493.9345650758355,78.84354552306712L494.3126021866645,74.85362077246498L494.6324797419813,71.6375059888058L494.908737630664,68.27340113407126L495.1995354082248,68.193777889052L495.27223485261504,94.41643837903348L495.50487307466364,89.42119792557429L495.6793517412001,84.29703159761334L495.9119899632487,79.56386465895787L496.3045669629557,75.34605739948125L497.2932794066623,73.6305574681299L498.0057339616862,71.52424326942253L498.1947525171007,98.14580772911734L498.31107162812503,92.6496751714605L499.69236107153864,86.6833141382412L500.7392330707574,85.54239714684672L501.21904940373264,80.30522501225363L501.3208286258789,76.82801293012363L501.45168762578123,72.85078061582936L502.1786820696832,69.69763971255873L502.22230173631726,66.67743496085808L502.52763940275605,63.56079986653242L502.7021180692925,61.314002132229064L502.9783759579753,60.25496693083454L503.254633846658,57.868181902866866L505.23205873407113,56.17775626238728L506.40978973319227,56.60305650925176L506.42432962207033,59.755603810097625L506.9186858439236,58.1935695205126L507.1949437326063,74.70626729167651L507.8637786209961,70.88866535509271L508.9106506202149,67.88245376860351L508.983350064605,66.61621344971269L509.361387175434,64.35054025360819L510.0302220638238,62.41282928016511L510.24832039699436,60.31613817005331L510.90261539650606,58.17098814908047L511.44059128499345,56.256014262719816L512.0658065067491,54.93428844938677L512.3566042843099,53.21030309578498L512.4438436175781,52.35347281012446L512.6328621729926,51.884950369193746L513.0399790615777,50.625178051042326L513.6651942833333,49.698747873425475L514.2467898384548,48.86205830699254L515.2209623932833,48.83777013494432L515.5844596152344,47.8424843378732L515.6862388373806,47.269591406042366L515.7443983928928,46.94167484757452L517.1838473918185,70.06960220814932L517.2274670584527,66.81521460092466L517.8090626135742,65.49329419733152L518.2743390576715,64.61953554989412L519.1758121681098,62.2326037920451L519.3793706124023,60.340397541533946L519.6265487233289,60.69959853276799L519.641088612207,58.30106928024429L520.2517639450847,57.0894085976376L521.6912129440104,55.3081676327613L522.0837899437174,53.44848467288165L524.206613719911,54.849217965660955L524.9772278304471,53.420188750235354L526.5475358292751,83.72374068894021L526.7074746069336,82.56438331455968L528.4958809389323,77.91134403672646L529.3537343827365,105.38561506651985L529.8917102712239,129.93481223462916L530.1970479376628,121.6675206607647L530.7350238261502,142.61074199455126L531.2584598257596,131.75696398388038L531.2729997146376,121.98883408377179L531.6364969365885,113.08473270099222L532.5379700470269,136.6982264073115L532.8433077134657,157.5646561556655L533.5703021573677,145.1450323522394L533.9483392681966,133.53403592763402L534.1955173791232,124.17402067272661L534.5299348233182,146.80618467301431L535.1987697117079,137.09887302421902L536.1438624887804,126.57821699393662L536.2456417109266,117.06827337658734L536.361960821951,116.70580280342705L537.0598754880967,108.82779400695779L537.1907344879991,101.49073822111097L538.0485879318034,95.58921288354259L538.2376064872179,89.20633623471372L540.3458903745335,112.8648864459995L540.5203690410699,105.2276707546705L541.0001853740451,98.17540347813792L541.0292651518013,94.84950965801352L541.6108607069227,89.41033750611211L542.5559534839952,85.38466225965993L543.63190526097,81.29680889725017L544.3152800382379,77.07124806808247L544.8387160378472,73.46365282944538L545.2603728153103,69.96731530807313L545.6820295927735,67.10976422218215L545.8710481481879,64.76093881159784L545.914667814822,63.82181588653867L546.8743004807726,61.938539153853526L546.9179201474067,59.3872032381974L547.5431353691623,60.553279654033474L548.1101910354058,58.440259188086316L548.2555899241862,56.628555973324694L548.2992095908203,55.268337424408855L549.0698237013563,53.95764353541148L550.9890890332574,52.40517734947008L551.0908682554036,52.715051034454405L551.1054081442817,62.41062627722209L551.2071873664279,60.22015266379344L552.1522801435004,57.9613246091468L552.5593970320855,87.68169381576416L552.7338756986219,82.14616256934227L552.9228942540365,77.7456806465832L553.0246734761827,73.686216445323L554.2024044753039,70.3745597967307L554.6822208082791,67.36951370016482L554.7403803637912,95.23818054131971L555.1329573634982,92.32941392612497L555.1620371412544,86.36438928497643L556.1362096960829,81.65027078294207L556.4706271402778,108.75095159965002L557.4884193617405,101.75876972462152L557.6338182505208,95.29434159311268L557.8809963614475,120.76808713955273L557.9827755835937,112.56982606144021L558.0263952502279,106.78204843292247L558.2299536945204,99.30760008713702L558.3898924721788,93.81499074204675L560.367317359592,91.99304029781786L560.9052932480794,95.49462727283532L561.7049871363715,103.96904792650884L561.8067663585177,112.07244207539452L562.7518591355903,104.8786583870226L563.1153563575413,99.20832263906061L563.2462153574436,123.40264999467198L563.4206940239801,126.31746621341367L563.6969519126628,117.07770287706614L563.9441300235894,109.44155607697763L564.16222835676,103.624370387358L564.7292840230035,111.28716368167875L564.9037626895399,106.3744487662724L565.2672599114909,127.91985339701259L565.7034565778321,122.24880699831999L565.8052357999783,118.42755380589836L566.6485493549045,140.6906565473117L566.808488132563,132.16443230504962L567.3173842432942,140.363940710368L567.5936421319769,156.61921216575405L567.6954213541233,166.90749501639988L568.3642562425131,183.91075132620654L569.120330464171,169.04339387558267L569.1639501308051,155.36283043463865L569.6728462415365,173.64281067865574L570.6615586852431,191.21159918486208L571.025055907194,176.05095790326698L571.5194121290473,163.86253437991988L571.5630317956814,150.10273869095886L572.3191060173394,168.39314114375946L572.3336459062175,154.46494135251837L572.4499650172418,141.83856596008889L572.6389835726562,130.6936112961799L573.4386774609484,121.61878735186724L573.8312544606554,112.43000908549465L574.7036477933377,104.62319430403574L574.7181876822158,99.69224723630748L575.0962247930447,93.23331113065922L575.2707034595811,97.2228998393781L575.4888017927517,93.5979549932382L575.7795995703125,89.13812982496029L575.9104585702148,83.96834107651301L576.0413175701171,79.09072991317845L576.4775142364583,75.05149612311891L577.1899687914822,83.84389488237389L577.9896626797744,107.90965984855825L578.4549391238716,102.92374724235418L578.7748166791883,96.10007451486263L579.8362285672852,97.34570117214093L580.9703398997722,90.8545652224027L582.0462916767469,87.33744145761744L582.7587462317708,82.2202959252553L583.2821822313801,82.78209731234489L584.1836553418186,83.7481485842543L584.9251896745985,79.04721359176841L585.3032267854275,75.26018497579446L585.3468464520616,71.54237220576687L586.4518780067925,68.5756371196548L586.7572156732314,96.97779725538084L586.8735347842556,90.92097504596848L587.0625533396701,85.26640800728097L587.0916331174262,80.53303988196552L587.1788724506945,78.62667613225011L588.1094253388889,105.0371867345479L588.6037815607422,98.71893253539008L588.6328613384983,93.048456107236L588.6474012273762,88.32524240069557L589.8978316708876,84.53540603589812L589.9414513375217,81.2714988851825L590.3340283372287,76.97448471309673L592.8203493353733,73.08451667823005L592.9221285575195,69.40597778331045L593.4601044460069,66.42512368271548L593.88176122347,63.67666992140664L593.9544606678603,61.397604917161345L594.5651360007379,59.0127133713857L595.4666091111761,56.580174588514296L595.7137872221028,55.49154343330247L595.7283271109809,54.100871999357764L596.6879597769314,58.774104155983196L596.8042788879558,56.98176130316995L596.9787575544922,55.171217535440576L597.5167334429797,54.410404560959364L597.5312733318576,53.29374400375923L597.5748929984917,51.847695362420836L598.5345256644423,50.606932788744416L599.2905998861003,49.85733276070039L599.5086982192709,49.03406283707551L599.7267965524413,48.20331720709106L599.95943477449,49.27247338982039L600.1484533299044,48.447653581505506L600.6573494406358,47.94997678259813L600.9336073293185,46.78206161757191L601.0353865514649,71.05487322339991L604.4231806600477,70.02175274754813L605.29557399273,66.8665614287778L605.7317706590712,63.80932465482812L606.008028547754,61.565641901735944L606.3133662141927,59.182859129766996" fill="none"></path></g></g></g></g><g opacity="0.2"><g><g><g><path style="fill: none;" stroke="rgb(255, 112, 67)" stroke-width="2px" d="M73.32465961194661,323.62819314658054L73.36827927858073,328.3502027851523L73.74631638940971,319.88309943480215L74.0807338336046,307.8810898691391L75.01128672179904,309.0708993834855L75.14214572170138,294.55360961809583L76.04361883213976,331.66528760995345L76.11631827652994,285.0680785890072L76.42165594296875,319.3374864414509L76.68337394277343,303.8010596972848L77.19227005350477,313.8999530176217L77.22134983126085,286.6634713716479L77.33766894228515,279.4402272474103L78.8352774967231,275.371357079111L79.40233316296657,271.70705277276693L79.60589160725912,329.1272127883042L80.50736471769748,330.8612547175545L81.13257993945312,331.5781433481715L81.2343591615994,303.5869690839745L81.93227382774523,303.9445087467392L82.12129238315971,332.10757486080433L82.47024971623263,331.88586287758505L83.09546493798828,282.070023348277L83.21178404901259,279.2248779870825L83.92423860403646,325.70032733108496L84.127797048329,325.7692749658298L84.37497515925564,309.573036611108L84.46221449252387,292.0366302448957L84.86933138110894,314.3545946756035L86.4541792688151,320.14088869925047L86.8322163796441,317.49028296769484L87.45743160139973,315.52119526338385L88.21350582305773,324.8042466978984L88.76602160042317,304.50904864461575L89.87105315515409,274.1468875725208L91.04878415427518,271.4279163304659L91.84847804256727,271.336821752576L91.8920977092014,278.680361065509L92.09565615349392,279.5262085717917L92.15381570900607,271.7122394473514L92.8517303751519,279.60950478253585L92.95350959729818,280.4016185498974L93.59326470793185,271.7054899527202L94.02946137427301,302.15549147572864L94.85823504032119,321.1623358197403L95.27989181778428,268.186396801655L95.51253003983291,289.3851749266033L95.74516826188152,265.7567989976432L96.55940203905165,267.90622197556456L97.30093637183158,264.2659683159794L97.56265437163628,276.50594345556556L97.69351337153863,269.0931942897591L97.92615159358724,268.23760275781603L97.96977126022135,271.09614222102147L98.60952637085502,272.270984324585L99.52553937017144,256.5977767379759L99.8454169254883,330.4025132791314L99.8890365921224,253.37915409615795L100.0053557031467,260.8624084723935L100.58695125826823,260.7762278622343L100.83412936919488,254.49433633109305L101.02314792460938,323.8792578271199L102.31719803475478,318.87430958338183L103.18959136743706,254.3109724380969L104.51272125533855,258.71216212954823L104.687199921875,247.06448005457398L105.15247636597222,276.24546121093607L105.23971569924046,253.4042641041566L105.53051347680122,252.80701511691336L105.6032129211914,247.81251495451102L106.25750792070312,269.11971503128984L106.43198658723958,253.5867679216908L106.94088269797092,257.5896797419117L107.44977880870225,267.82622971324133L107.4643186975803,253.67362505462188L108.13315358597005,258.8309364530975L108.3803316968967,292.6662002386753L108.40941147465277,317.5227272167516L108.48211091904297,255.81265370592388L108.84560814099393,254.98250257682162L108.86014802987197,249.11900104737754L109.03462669640842,254.35156380441055L109.1073261407986,254.40618908496907L109.52898291826172,245.45147145805117L109.74708125143229,247.48888534014216L109.83432058470052,245.51926008866744L111.75358591660157,326.1707728756799L112.55327980489366,247.6539149415837L113.26573435991753,281.656542069948L114.82150246986762,243.14048015798633L115.85383458020834,243.98016553824598L116.49358969084201,254.03778310295348L116.88616669054905,312.27076031819917L116.92978635718315,234.8516602243899L117.77309991210937,241.31885081831663L118.67457302254775,279.70402392918584L119.18346913327908,248.79206748458782L119.67782535513237,228.24944827166328L119.88138379942492,313.72133789493523L119.91046357718099,228.5956181563701L119.92500346605902,225.5772147888573L120.76831702098525,222.44186213597064L123.31279757464193,224.71960417732376L125.0575842400065,218.88152731763273L125.3193022398112,232.97028710629064L125.34838201756727,228.8592103080053L126.07537646146918,225.18783135655045L126.88961023863934,223.06858444087314L127.1077085718099,225.72313393308352L127.86378279346788,225.1580119109614L128.16912045990668,212.64251893924947L128.27089968205294,227.8630751034732L129.82666779200304,223.85761976740446L130.23378468058812,303.1674462999616L130.64090156917317,224.67765976546633L131.39697579083116,231.01169599366915L132.29844890126952,217.28240579320274L133.72335801131726,205.6642337464258L134.17409456653647,203.17191336604307L134.24679401092664,274.56546637127065L135.2936660101454,201.65886232015822L135.4826845655599,205.32236423902867L135.51176434331597,311.43813122778124L136.68949534243706,207.3283643893085L138.0271651192166,272.8698275980504L138.27434323014324,211.7456804956712L138.57968089658203,208.29864488635656L140.00459000662977,308.18197730521086L140.52802600623914,200.34062885512856L140.5861855617513,206.37162483642342L140.7025046727756,202.96808597028777L141.77845644975042,203.05175453077456L142.3309722271159,285.28110459671524L142.53453067140842,202.786117077736L143.08704644877386,196.89642520160325L143.26152511531032,193.95729561874126L143.87220044818793,196.2135567509961L144.86091289189454,185.38534303856332L144.99177189179687,197.85932163614876L145.035391558431,204.44392301935585L146.1404231131619,197.63531393321327L146.16950289091795,196.27126571674745L146.95465689033202,191.29861356882347L147.3617737789171,185.05306022594934L148.88846211111112,185.78247763875282L150.19705211013456,190.68432040321855L150.42969033218316,212.1634254407719L150.63324877647568,196.50791233348346L151.520181998036,195.71781764571242L152.9305512192057,184.72320030884399L153.39582766330295,178.80451759640866L155.06791488427734,180.50194994162877L155.28601321744793,222.44795608528025L155.9257683280816,193.57500256463283L157.16165888271485,253.55223903851135L157.4088369936415,180.1290023416251L157.4524566602756,257.8304589163551L157.97589265988498,189.07295853654358L158.07767188203127,180.35915643749595L158.60110788164062,173.12812443483773L158.90644554807943,170.71592742584258L159.8079186585178,201.0985231567025L160.09871643607858,177.8811951218376L161.7126441015408,174.3028092075241L161.85804299032117,178.4798076433498L162.86129532290582,177.49639526241938L163.0503138783203,164.53174361379558L163.13755321158854,177.84943526209665L163.32657176700303,186.5222998669008L164.15534543305122,334.8922363329011L164.4897628772461,178.97412028201373L164.5624623216363,154.47765026073705L165.42031576544053,162.0871154666501L165.76927309851345,153.14929517594183L167.16510243080512,181.89073057198803L167.51405976387804,169.18420644919848L168.2992137632921,170.6255355925374L168.72087054075521,171.8169813480065L169.50602454016928,167.1086975173785L170.07308020641278,165.91159833905587L170.11669987304688,152.69435721147468L170.2911785395833,159.3223504506093L170.74191509480252,159.65884973073182L172.2540635381185,223.53740947743313L172.37038264914278,190.86354124978217L172.58848098231337,333.67550553883245L173.99885020348307,140.6960108330687L174.37688731431206,134.49620930927986L174.6967648696289,176.765834578575L176.0344346464084,168.76985985104497L176.1507537574327,136.8267830591916L176.74688920143228,200.42031170006004L177.6338224229926,153.63269954045427L178.08455897821182,132.84318622632642L179.01511186640624,141.6256475201774L179.4222287549913,153.3816623928184L179.43676864386936,172.349577833452L179.71302653255208,170.21071700175236L180.04744397674696,263.7922345560513L180.32370186542968,148.72380835269064L181.03615642045355,157.67643872330456L181.18155530923394,163.47601147298596L181.22517497586804,140.7913323671923L181.44327330903863,241.782011943298L181.92308964201388,145.7975379468572L184.48211008454862,138.92236741094035L184.56934941781685,140.05982769808483L185.54352197264538,139.48934593741328L185.95063886123046,336.35665771573883L186.09603775001085,129.2444207190549L186.6049338607422,334.54031141581595L187.57910641557075,327.2502056020468L188.04438285966796,261.8345874286929L188.9022363034722,129.30970254436136L189.41113241420356,138.58137895645547L189.74554985839842,295.17702797457747L189.9927279693251,195.94458388336122L191.65027530142146,127.16897471958575L192.15917141215277,136.82955208263004L192.246410745421,130.73115555354926L193.24966307800563,144.72743625259804L193.88941818863933,136.1078858377092L194.31107496610244,117.00657479067326L194.38377441049263,127.15972366400729L194.51463341039496,114.94304398296964L195.8232234094184,215.6055837928938L195.8668430760525,306.98394463035027L196.27395996463758,119.83829982804389L196.41935885341798,123.33433876123897L197.26267240834417,123.8037931213077L197.77156851907554,128.15059352851625L198.25138485205076,119.41396796355173L198.26592474092882,135.54155761219528L199.1383180736111,117.48269997993464L200.94126429448784,103.71660484293216L200.98488396112197,153.25946874487167L201.7991177382921,123.41791292319948L202.17715484912108,296.25510634430987L202.2207745157552,134.27221209506948L202.526112182194,117.90036101523418L202.6278914043403,117.23285854696542L203.47120495926652,115.57631125236298L203.55844429253472,122.03266699321432L204.37267806970485,106.25126820672784L206.8589990678494,325.50145061359837L206.96077828999566,112.48721387736862L207.35335528970268,253.60504976961965L208.16758906687284,128.20695993744894L208.63286551097005,109.37474762274968L209.5634183991645,101.17992764390851L209.6070380657986,102.69437369023774L209.89783584335936,109.75603375924413L210.37765217633464,98.01864686246176L211.52630339769965,102.34023237442022L211.6280826198459,118.88523132895978L211.8171011752604,227.93053858360997L212.13697873057728,110.61084388116382L212.6894945079427,98.26918055129062L213.12569117428384,287.99137019689925L213.46010861847873,114.49429436633841L213.72182661828342,107.96573424158447L214.73961883974607,95.87668136811897L215.83011050559895,95.61379196106856L216.7606633937934,92.04057698825187L217.70575617086587,117.81028384368335L218.95618661437717,314.2084290463364L219.33422372520616,103.92835122617242L220.55557439096137,95.62946211643617L222.1258823897895,329.0384768624814L222.2276616119358,292.29077205517467L223.87066905515408,112.86776580310283L223.91428872178818,84.09136099742102L224.219626388227,89.92720375865605L225.07747983203123,100.43587845952686L225.22287872081162,111.02978454093113L225.28103827632378,86.10609825574721L225.7026950537869,323.0322696719776L226.18251138676214,90.26185702315297L226.93858560842014,85.65741157146681L227.18576371934677,91.02994636556849L227.38932216363935,92.38634830140313L227.62196038568794,88.46518036060479L227.8691384966146,108.15417467755111L228.4507340517361,94.49244235574781L229.11956894012584,107.27089815558617L229.1341088290039,322.45484568635027L229.45398638432073,85.75332047419863L229.96288249505207,217.36132296119857L230.10828138383246,315.42719006426603L230.34091960588108,163.70030237150038L230.47177860578344,83.71982937531209L230.67533705007597,87.83927617626364L231.2278528274414,99.83827285562865L231.2714724940755,233.54978917058745L231.76582871592882,77.03133716953738L231.82398827144098,190.64192497617987L232.15840571563584,176.05902036846038L232.2456450489041,141.17251361643528L232.27472482666013,96.69033373256718L232.85632038178167,82.61811466346393L232.94355971504993,80.74910775231137L233.13257827046442,322.79272423382946L233.2052777148546,95.27716681624429L234.13583060304904,172.76494183794463L234.41208849173177,83.3061540555679L234.5429474916341,90.24098446011317L235.19724249114583,79.84000798903787L235.5316599353407,322.61552377794703L235.5607397130968,204.15805281551135L235.5752796019748,76.87604110503099L236.43313304577907,84.92873885814868L238.74497537738714,123.2428351230684L239.51558948792317,77.31862335127653L239.80638726548395,84.21416299142629L240.25712382070313,132.82193606918133L240.38798282060546,98.64291480568022L240.6351609315321,127.96372640132148L240.88233904245877,101.10497521401777L241.33307559767792,75.25345630245016L242.0746099304579,258.78522134455017L242.40902737465277,75.54661617027091L242.61258581894532,309.6964731729845L243.68853759592014,75.14160453749702L245.3460849280165,132.84469660274738L246.74191426030816,76.5528625058434L246.81461370469836,95.36674052898809L247.3380497043077,91.13823196397209L247.78878625952692,82.5265480929425L249.19915548069662,84.59135852511389L249.5771925915256,75.88233928473272L249.63535214703776,83.27078607437682L249.86799036908636,71.39289221554338L250.478665701964,65.26693131677985L251.40921859015842,70.80279653884946L251.45283825679252,73.5935735932515L251.68547647884114,271.0119754460903L253.0813058111328,66.27953381979063L253.8519199216688,89.63977073476485L255.23320936508244,77.0363717576073L256.948916252691,76.93974962156562L257.35603314127604,82.40529843025882L258.21388658508033,62.4242560503572L258.89726136234805,80.50772023180951L259.94413336156686,79.09797263988418L260.2203912502496,77.03903589379428L260.8456064720052,67.50619022557362L261.136404249566,187.02302111662868L261.97971780449217,56.072074327652444L262.2268959154188,71.45534208506052L262.61947291512587,63.22727284750772L262.92481058156466,62.92786169950017L263.0992892481011,69.24356363614834L263.3173875812717,91.27769005350859L263.37554713678384,155.80420128480714L263.6227252477105,65.65654550103994L264.14616124731987,58.35288956547322L264.72775680244143,67.99192308706841L265.2075731354167,69.54819816927846L266.8069609120009,96.31135511560478L267.5775750225369,84.5658079906591L267.63573457804904,79.8796134151878L267.9265323556098,65.1526251901426L268.63898691063366,55.63616291059952L269.0606436880968,68.77526303584563L269.6713190209744,91.45092183801404L270.4128533537543,90.62759886898158L270.7472707979492,64.65975999554882L271.60512424175346,57.627971815757235L271.6487439083876,60.64700450677873L272.5938366854601,65.04236771141166L273.0154934629232,68.11535440458232L273.5098496847765,71.71623863433331L274.0187457955078,71.73660773856614L274.3531632397027,54.21099689271L274.5858014617513,63.383533874727505L275.6472133498481,54.710071412590025L275.9234712385308,51.311997172255246L276.24334879384764,52.56661651927652L277.4356196818468,55.4317796124115L279.48574401365016,46.68061667439508L280.4453766796007,67.89368568735432L280.5471559017469,77.98681807540493L280.6780149016493,100.48280501582849L280.92519301257596,71.50417758933867L281.0996716791124,53.155789188157655L281.1869110123806,52.68660753494271L282.0447644561849,59.12018176477767L282.7717589000868,59.5728331871631L283.4551336773546,64.81700696293234L283.97856967696396,76.85806343013138L284.3275270100369,56.34469727163798L284.371146676671,58.061365938775225L285.4616383425239,76.12683146787765L285.5488776757921,69.53477260109202L285.98507434213326,278.7367799180674L286.1159333420356,334.7900407505352L286.1740928975477,52.627514057472126L286.261332230816,47.53456672085281L287.59900200759546,97.30895874165725L287.6135418964735,175.5081105689106L287.72986100749785,80.02888895146066L287.78802056301,56.34717261077236L288.03519867393663,68.64545457344315L288.96575156213106,56.40746180290955L289.2420094508138,47.25921670832935L289.7363656726671,139.7721429447901L291.20489444934896,49.317314356407564L292.1209074486654,97.16238929647204L292.7897423370551,331.6658408902049L293.4294974476888,52.15268947012885L293.7057553363715,79.15180077733163L294.67992789120007,63.35714424226103L295.5232414461263,42.01468631590518L295.8576588903212,332.67835817232384L297.0353898894423,56.00706520919971L297.689684888954,51.79661822888454L297.71876466671006,71.4227011724073L298.1840411108073,47.2251073741557L298.6347776660265,54.329204825101385L299.4926311098307,305.5834428496408L301.5718352193902,50.084963172367L301.9207925524631,61.4295682898952L302.05165155236546,319.9662094706749L302.13889088563366,59.75472865863884L302.8077257740234,334.8755422157412L302.85134544065755,54.69861772473098L303.1276033293403,52.17379278512192L305.0468686612413,244.80199910830774L305.25042710553384,70.7112719232286L306.7334957710937,109.72561645632175L307.03883343753256,66.98099878008094L308.0857054367513,91.87747731223709L308.9726386583116,50.34623731574493L310.01951065753036,65.12938217521986L310.3393882128472,333.08086365533325L310.58656632377387,56.60790134044282L311.25540121216363,53.18419265585209L311.7497574340169,47.189676460613725L312.69485021108943,48.03878071605419L313.48000421050347,58.00581765040391L313.85804132133245,91.94844402657253L313.93074076572265,57.875191067440085L314.9630728760634,47.18357202257897L315.4865088756727,127.55053356293396L316.1989634306966,269.22786427626653L317.10043654113497,57.48775853801027L317.11497643001303,47.61958832688339L317.6093326518663,60.214197752368875L317.81289109615886,323.7401786427793L318.4235664290365,54.76660564112501L320.85172787166886,50.358299349662445L321.302464426888,64.05422491544056L321.7968206487413,48.2949363615611L322.68375387030164,81.1318623103262L322.82915275908204,50.75951406393358L323.3671286475695,69.76783207382817L323.48344775859374,333.4860214747138L323.84694498054466,53.82490692009884L324.1086629803494,64.90410533654176L324.13774275810545,43.63255119217041L324.47216020230036,49.44953522559359L324.48670009117836,47.3507203465L324.5012399800564,52.82463915785934L324.5448596466905,47.595170574744316L324.8211175353733,83.69809673681027L325.3300136461046,67.19421358484158L325.7807502013238,64.66179480822711L326.08608786776256,47.450426167734406L326.3478058675673,67.3225955806243L326.49320475634767,51.11302605624235L327.787254866493,47.02292670824829L327.9908133107856,57.24288876076008L328.2816110883464,139.2547551108058L328.4124700882487,55.09519642248773L328.514249310395,51.52131017126169L328.528789199273,51.73853166902802L328.9504459767361,55.70469624070114L329.0958448655165,67.79412670827185L329.38664264307727,54.18190116915599L330.38989497566195,44.87760482185888L331.10234953068573,51.81780545367877L331.58216586366103,67.75932511823862L332.1346816410265,56.914130159795036L333.74860930648873,333.8288815110919L334.11210652843965,52.92774332604108L334.1557261950738,45.81147895392644L334.2865851949761,50.141958904808405L334.69370208356116,52.275008982777365L335.2025981942926,46.900984789705035L335.377076860829,73.7238016046598L335.9441325270725,43.70418918491515L336.3076297490234,315.5332074758569L336.55480785995013,45.97833359354337L337.54352030365663,43.60523855189115L337.86339785897354,66.23241846643634L338.2705147475586,47.43769285540765L339.05566874697263,45.19482582516372L340.98947396775174,46.532683694940886L341.00401385662974,41.02694209148956L342.3853033000434,58.51584239933595L343.0395982995551,61.79455494751335L344.79892485379776,48.033976879937484L344.900704075944,48.13009555717218L346.7181901856988,51.14218471214724L347.41610485184464,56.44817903392493L348.3611976289171,67.9037548634941L348.63745551759985,55.97698354548203L348.71015496199,55.55709890045159L349.0445724061849,49.29734382373027L349.3644499615017,45.69713087238864L349.66978762794054,75.9494671256648L350.65850007164715,57.10269646046339L351.4291141821831,63.81287934983925L352.27242773710935,46.529830761701305L352.912182847743,49.74911419320341L352.9703424032552,45.429060035116265L353.3338396252061,46.695258934698415L356.02371906764324,49.98353720020856L356.2418174008138,57.64792137098425L356.2854370674479,220.53118351981445L356.60531462276475,50.34258723939428L356.69255395603295,43.95726114522927L357.39046862217884,89.67037683473984L357.6085669553494,47.5030166356147L358.2774018437392,50.668010425762986L358.48096028803167,65.82050525251668L358.6408990656901,46.7806581348342L358.77175806559245,47.87662502530253L359.4405929539822,48.421010837811764L359.6005317316406,51.35040688373857L359.6877710649088,65.79541622196831L360.5456245087131,47.745096411976135L360.93820150842015,59.94608496019595L361.272618952615,47.463327299663604L362.2904111740777,43.369598852769116L362.61028872939454,51.52890400826715L363.09010506236973,50.090354377091785L363.33728317329644,123.5794392904424L363.4390623954427,58.33612858269055L364.02065795056427,52.96111844945449L364.2096765059788,45.32746624335556L364.28237595036893,152.62456523435557L364.36961528363713,41.86969017949173L364.41323495027126,68.88258367153588L365.5182665050022,85.19336939357322L365.5328063938802,317.1721940223842L365.56188617163633,53.92912289314597L366.1725615045139,52.87173353376335L366.21618117114804,328.2412813077867L366.6669177263672,325.48981992850247L367.05949472607426,61.00548815480653L367.10311439270833,39.8449466773767L367.17581383709853,49.37701617993662L367.9900476142687,49.981418477729164L368.2081459474392,49.775440893319L368.33900494734155,149.4368738429921L368.3680847250976,43.806223503131946L369.0805392801215,52.825499233321295L369.9093129461697,53.657548821674936L370.5636079456814,49.15113099519999L371.159743389681,52.61742390388201L371.34876194509553,54.95267562520877L371.3633018339735,46.29345685181909L371.6831793892904,321.1212908160641L371.7558788336805,45.86213949637994L371.915817611339,58.548462334538954L373.52974527680124,58.33201700243342L373.83508294323997,41.39232732066324L374.8237953869466,42.30058798592512L374.83833527582465,49.03153855108934L374.8819549424588,42.428802162105455L374.89649483133684,45.00418275691652L375.5944094974827,147.18538508067851L375.94336683055553,43.47603843554714L376.42318316353084,39.14092246815079L376.78668038548176,63.46975119542469L377.8626321624566,56.441906776287794L378.44422771757814,47.05166581514737L378.5605468286024,44.8742694072626L379.0258232726996,334.05944204506216L379.2148418281141,41.99114961667834L380.14539471630854,64.79493868522593L381.0904874933811,40.89931528391742L381.42490493757595,46.46461186874569L382.64625560333116,39.46525482710439L382.6898752699653,49.633276712694965L382.7625747143554,45.675440188787434L383.736747269184,317.69830585350843L383.9984652689887,38.91904397641986L385.08895693484163,39.0456219114775L385.656012601085,41.17481213859287L385.6705524899631,54.390773641706346L387.9533150438151,52.30704154937217L388.5639903766927,107.1049035914312L388.57853026557075,39.890929248415205L389.52362304264324,43.56831823937847L389.6108623759115,49.2425717010197L389.90166015347216,45.735540583871966L389.9888994867405,45.5664623345242L390.29423715317927,48.052709743047615L390.38147648644747,136.11321411008316L391.2538698191298,41.84281806566861L392.111723262934,44.000873264384836L392.57699970703123,42.98508218892982L392.6787789291775,57.7745412609425L395.7903151490777,46.771658808659254L396.15381237102866,45.32700473944914L396.3428309264432,48.8698443642441L396.7354079261502,46.340488295372154L396.83718714829644,47.71295895812989L396.9971259259549,40.067706222019865L397.06982537034503,41.06417706575667L397.1861444813694,42.31567077268454L397.3897029256619,44.193131596304454L397.79681981424693,54.65240440173926L398.8000721468316,41.64040664780799L398.8436918134657,45.86891521282399L399.4543671463433,39.13809051236149L399.96326325707463,37.97969472982629L400.50123914556207,47.436581050542145L401.82436903346354,63.72693473599588L402.05700725551213,39.981740630726165L403.61277536546226,53.3819890346486L403.7145545876085,38.24168210651419L403.889033254145,72.4485194691016L404.6305675869249,310.56408478394445L404.79050636458334,54.58347250008211L404.80504625346134,78.13384902449661L406.11363625248475,41.660209360883016L406.1572559191189,51.53630904821995L408.29461958419057,106.02901212089165L408.35277913970265,41.24256930303375L408.3673190285807,48.048388388287606L408.61449713950736,42.50748857814807L408.83259547267795,66.59058745270983L408.97799436145834,327.77603423759206L409.1379331391168,42.3160483667898L409.21063258350694,324.06990089536714L409.2833320278972,42.60985853556957L409.42873091667747,40.96189101813633L409.77768824975044,41.866082058041684L409.92308713853083,40.77609374090639L410.3011242493598,51.69391263225839L410.9554192488715,43.28025589197853L411.28983669306643,69.35484900994362L412.0313710258464,43.41186841510603L412.38032835891926,64.71939888672694L412.656586247602,40.9755263608256L412.8601446918945,48.03498379755143L413.3399610248698,46.24862804054658L414.98296846808813,40.25444748451292L415.69542302311197,52.5206968805889L416.87315402223305,44.20485799101732L417.0330927998915,43.34503425847805L417.32389057745223,39.22502106636858L418.1962839101346,46.28491902955051L418.38530246554905,46.08540249983008L418.9232783540364,175.46652277370814L419.2140761315972,43.4373979721106L419.3740149092556,39.41503481110709L420.62444535276694,45.91277906138305L420.76984424154733,60.934038959114446L422.8199685733507,46.0459439158322L423.3579444618381,50.14802138794255L423.3870242395942,47.25328008989692L423.8086810170573,48.54660283270567L424.3757366833008,180.67794026084752L425.07365134944655,38.61380109723132L425.7715660155925,43.73208919380255L425.8006457933485,54.224779077551375L425.9169649043728,82.9705148509073L426.35316157071395,245.95232906120594L426.68757901490886,42.902745696536556L426.8911374592014,40.814125858284456L427.71991112524955,57.0861452521836L429.1157404575412,196.81051205393527L429.7700354570529,42.16731824422453L429.8281950125651,42.395972452399576L430.7005883452474,39.78444771073663L431.3694232336372,58.08905617315975L431.8056198999783,284.1587638068682L432.1254974552951,332.18409666619505L432.2418165663194,47.36813163024175L434.0156830094401,42.339375291513704L434.45187967578124,44.19877453043284L434.7717572310981,75.97923412762816L435.2515735640734,42.96328661807718L435.6732303415365,49.679531990587236L436.3275253410482,42.7145569899734L436.8945810072916,48.23397589101461L438.145011450803,50.58634521177896L439.20642333889975,43.669995940940396L439.5699205608507,41.77321488560216L439.7589391162652,62.22794907053134L439.8897981161675,42.26433895182174L441.0384493375326,219.10149686138718L441.8963027813368,58.77155751838677L443.55385011343316,44.7508380897487L443.77194844660374,47.70158918007206L444.5280226682617,49.16489220259109L444.92059966796876,135.7689951282534L445.8220727784071,56.64045834329488L446.18557000035804,52.37205066782485L447.4796201105035,46.09939445917439L448.0175959989909,47.57824177235926L448.5264921097222,105.97854037549081L449.00630844269745,44.797345097044456L449.602443886697,43.28604566825891L451.1727518855252,304.4270346805207L451.4053901075738,42.23429924300467L451.7107277740126,166.4933240130836L451.8415867739149,53.45698341943995L452.0742249959635,154.11343976877967L452.99023799528,316.4510181253639L453.00477788415793,72.22152247949953L453.2083363284505,38.57704860432102L454.8077241050347,161.80528342198664L454.99674266044923,323.23481219890255L455.1566814381076,145.9853280818648L456.6106703259114,54.69719125811116L457.58484288074,318.4736219275493L458.1955182136176,94.46309490279032L460.49282065634765,40.998244939491144L461.71417132210286,53.29870855699221L461.7432510998589,50.17566966742646L462.3248466549805,41.3165987251117L462.33938654385855,44.387026169346825L462.3539264327365,44.47062130875764L462.58656465478515,43.08141064066746L462.7755832101996,44.24664507199759L462.80466298795574,46.49267969723542L464.24411198688153,56.98933431908927L466.42509531858724,47.50259708660889L467.35564820678167,42.884788999087164L467.44288754004987,47.420386458917335L467.5301268733182,75.70310794944396L467.58828642883026,313.1865387772092L467.6028263177083,41.70136711835448L468.6933179835612,45.514501190152714L469.2749135386827,46.68145577240671L470.0746074269748,41.856264611305335L471.659455314681,57.76371689659214L471.81939409233945,57.00544500091303L471.9357132033637,262.62459820666277L472.63362786950955,178.43511518550423L472.98258520258247,44.4505039339283L473.564180757704,49.19249852717439L473.60780042433805,44.78029042995763L474.0585369795573,177.1381423663448L474.2039358683377,44.858746094047035L474.3057150904839,40.115429921432565L474.56743309028866,39.1549144274951L475.39620675633677,43.91167714574624L475.68700453389755,167.78687750784556L475.7306242005317,97.00012871846889L476.03596186697047,44.43267310118068L477.2863923104818,41.491173066435806L478.6095221983832,50.154964923988985L478.63860197613934,42.7470300830243L479.1038784202366,308.79615509483915L479.36559642004124,49.816221056685265L483.48038497252605,40.27584448381003L483.85842208335504,53.64538190050598L484.4981771939887,48.43445738344843L485.2978710822808,61.67668265432661L486.1993441927192,318.3820134021272L486.3883627481337,42.89932637213906L487.7260325249132,38.23845157916935L488.1476893023763,62.84902844130545L488.7147449686198,58.996603605111716L489.6598377456923,114.05941084434971L492.7859138544705,48.43277918742518L493.9345650758355,43.116526892455056L494.3126021866645,42.89827749962444L494.6324797419813,45.879613712472576L494.908737630664,41.330255045251306L495.1995354082248,67.55607460236632L495.27223485261504,304.4339624834794L495.50487307466364,49.41427213165389L495.6793517412001,43.257537313313094L495.9119899632487,41.65588800612301L496.3045669629557,41.5656010600693L497.2932794066623,59.891103062982495L498.0057339616862,54.65475387617187L498.1947525171007,311.358157320727L498.31107162812503,48.631100002479L499.69236107153864,38.89867487218703L500.7392330707574,76.4047826842372L501.21904940373264,38.36066620456637L501.3208286258789,48.97899003810966L501.45168762578123,40.99709117972509L502.1786820696832,44.44410581158945L502.22230173631726,42.488587895435614L502.52763940275605,38.59964131828468L502.7021180692925,43.31937883677176L502.9783759579753,51.773144462008645L503.254633846658,38.75239911130586L505.23205873407113,42.639122078725904L506.40978973319227,60.009290017923604L506.42432962207033,85.00438354389905L506.9186858439236,45.683222822845494L507.1949437326063,206.95661250397143L507.8637786209961,40.31345705218234L508.9106506202149,43.80567808942442L508.983350064605,56.47488332814578L509.361387175434,46.204743214537245L510.0302220638238,46.89368463700367L510.24832039699436,43.52372018005917L510.90261539650606,40.99046230543303L511.44059128499345,40.918971154840335L512.0658065067491,44.34857450296295L512.3566042843099,39.40288886738841L512.4438436175781,45.49111133307787L512.6328621729926,48.13254991885623L513.0399790615777,40.53565020566765L513.6651942833333,42.2789602346748L514.2467898384548,42.1610040316869L515.2209623932833,48.643245946197624L515.5844596152344,39.87123142259168L515.6862388373806,42.681286753811435L515.7443983928928,44.315388176602085L517.1838473918185,255.30138079869948L517.2274670584527,40.75079493585508L517.8090626135742,54.906021775760905L518.2743390576715,57.62159467086866L519.1758121681098,43.115645839542765L519.3793706124023,45.18570063428706L519.6265487233289,63.5764425076062L519.641088612207,39.091226888410745L520.2517639450847,47.38520727477885L521.6912129440104,41.04219269785136L522.0837899437174,38.554267093304645L524.206613719911,66.0677035267492L524.9772278304471,41.97508088975519L526.5475358292751,326.4251611709998L526.7074746069336,73.27907965848448L528.4958809389323,40.64511054128758L529.3537343827365,325.4272992600906L529.8917102712239,326.5495535179552L530.1970479376628,55.454707965579814L530.7350238261502,310.34519033451744L531.2584598257596,44.828958114633394L531.2729997146376,43.755793712631714L531.6364969365885,41.77170450918118L532.5379700470269,325.81891023540027L532.8433077134657,324.6840799960861L533.5703021573677,45.67615342209734L533.9483392681966,40.541460959398364L534.1955173791232,49.209574171711495L534.5299348233182,328.0673900446877L535.1987697117079,59.35292657575951L536.1438624887804,42.31818806671953L536.2456417109266,40.90304927006929L536.361960821951,113.8027727174861L537.0598754880967,45.73275058298327L537.1907344879991,42.72819233266273L538.0485879318034,48.323843288062506L538.2376064872179,38.085819650849885L540.3458903745335,302.34642822827993L540.5203690410699,44.06114147907169L541.0001853740451,41.69373132644847L541.0292651518013,68.2123960896298L541.6108607069227,45.84795873998297L542.5559534839952,53.14299294347995L543.63190526097,48.55715449020221L544.3152800382379,43.22869331916257L544.8387160378472,44.570390062342994L545.2603728153103,41.96511660086685L545.6820295927735,44.22361183157773L545.8710481481879,45.949174937638475L545.914667814822,56.300371919172505L546.8743004807726,46.85535883532151L546.9179201474067,38.953530904698766L547.5431353691623,69.89239617365786L548.1101910354058,41.51705924009525L548.2555899241862,42.11860860464816L548.2992095908203,44.37433481192062L549.0698237013563,43.46028437037836L550.9890890332574,39.97146168008345L551.0908682554036,55.19683216914905L551.1054081442817,140.062575744073L551.2071873664279,42.67662975984672L552.1522801435004,39.87035036967944L552.5593970320855,325.71239854263695L552.7338756986219,37.81204294709829L552.9228942540365,42.50218128322439L553.0246734761827,41.173931085680636L554.2024044753039,43.85147186341027L554.6822208082791,43.30207244028145L554.7403803637912,318.4385843412002L555.1329573634982,69.03307589992556L555.1620371412544,38.59045319505714L556.1362096960829,43.89485323061268L556.4706271402778,325.8005484109422L557.4884193617405,45.758322094888285L557.6338182505208,43.52067844976699L557.8809963614475,324.7875447141946L557.9827755835937,46.90987922862854L558.0263952502279,60.427685263983335L558.2299536945204,39.44467594836863L558.3898924721788,49.82463301425207L560.367317359592,77.40102277602074L560.9052932480794,123.53886890157904L561.7049871363715,171.84075928791168L561.8067663585177,176.9725988173711L562.7518591355903,47.26358001798991L563.1153563575413,53.79455254952734L563.2462153574436,317.17523575267643L563.4206940239801,149.6622555689217L563.6969519126628,43.076355075147205L563.9441300235894,48.28358756095349L564.16222835676,57.03447779211609L564.7292840230035,172.65854421006725L564.9037626895399,67.02847075009015L565.2672599114909,300.47719318735545L565.7034565778321,76.82934530068258L565.8052357999783,87.82310256208905L566.6485493549045,318.9960469717848L566.808488132563,63.8778255359411L567.3173842432942,206.03387739800857L567.5936421319769,286.8078276958274L567.6954213541233,249.30644505445534L568.3642562425131,320.0899842939374L569.120330464171,49.970594113378866L569.1639501308051,45.79507458779864L569.6728462415365,320.0473371374952L570.6615586852431,331.9201846084429L571.025055907194,54.62924529661768L571.5194121290473,66.24534057581582L571.5630317956814,39.90041105594685L572.3191060173394,314.88113916663997L572.3336459062175,42.913863745190895L572.4499650172418,40.71381169099152L572.6389835726562,41.43356898793587L573.4386774609484,48.938440626696604L573.8312544606554,38.83700116833063L574.7036477933377,42.09834438766683L574.7181876822158,60.200247747925175L575.0962247930447,41.5036336719088L575.2707034595811,129.17555174974856L575.4888017927517,64.5657390633433L575.7795995703125,53.419349873617364L575.9104585702148,42.56345641552525L576.0413175701171,40.025898163589375L576.4775142364583,42.70123630903845L577.1899687914822,154.26229575604668L577.9896626797744,300.6525882714222L578.4549391238716,62.99152826113419L578.7748166791883,41.44921816585321L579.8362285672852,107.32193629214487L580.9703398997722,38.866998922247205L582.0462916767469,59.16876553965227L582.7587462317708,41.2370312561568L583.2821822313801,87.28156968281945L584.1836553418186,91.4852619241409L584.9251896745985,41.397382886183436L585.3032267854275,44.92983867308425L585.3468464520616,41.76637623680716L586.4518780067925,44.81502908763997L586.7572156732314,324.4509536577271L586.8735347842556,42.41183140481979L587.0625533396701,39.97892965238714L587.0916331174262,42.62345192335829L587.1788724506945,63.358591686331124L588.1094253388889,316.55920408087866L588.6037815607422,48.1159777331261L588.6328613384983,47.63355930877742L588.6474012273762,50.4969812735381L589.8978316708876,54.18257244756529L589.9414513375217,55.13083711053264L590.3340283372287,42.559659497022494L592.8203493353733,41.92972764222549L592.9221285575195,39.94452663390945L593.4601044460069,42.551436336508345L593.88176122347,41.66427898623948L593.9544606678603,43.14455276604417L594.5651360007379,39.912095495759104L595.4666091111761,37.097949561732605L595.7137872221028,46.77268670372354L595.7283271109809,42.962971956322804L596.6879597769314,96.20206259958718L596.8042788879558,42.62687124775579L596.9787575544922,40.670556188490934L597.5167334429797,48.31704659416812L597.5312733318576,44.350399541138245L597.5748929984917,40.26627876647723L598.5345256644423,40.66965415812837L599.2905998861003,43.85377938294232L599.5086982192709,42.44048660191771L599.7267965524413,41.549867972350796L599.95943477449,57.835354889336884L600.1484533299044,41.84166430590261L600.6573494406358,43.96407881657393L600.9336073293185,37.42821853911869L601.0353865514649,265.4560400484545L604.4231806600477,61.74748154905967L605.29557399273,41.596605731599766L605.7317706590712,39.323887789591424L606.008028547754,43.59596651886238L606.3133662141927,40.0991304425562" fill="none"></path></g></g></g></g></g></g><g transform="translate(51, 378)" clip-path="url(#clip_1)"><clipPath id="clip_1"><rect width="654" height="21"></rect></clipPath><g><g><line x1="0" y1="0" x2="0" y2="5" style="visibility: inherit;" fill="rgb(0, 0, 0)" stroke="rgb(204, 204, 204)" stroke-width="1px"></line><line x1="72.69944439019096" y1="0" x2="72.69944439019096" y2="5" style="visibility: inherit;" fill="rgb(0, 0, 0)" stroke="rgb(204, 204, 204)" stroke-width="1px"></line><line x1="145.39888878038192" y1="0" x2="145.39888878038192" y2="5" style="visibility: inherit;" fill="rgb(0, 0, 0)" stroke="rgb(204, 204, 204)" stroke-width="1px"></line><line x1="218.09833317057291" y1="0" x2="218.09833317057291" y2="5" style="visibility: inherit;" fill="rgb(0, 0, 0)" stroke="rgb(204, 204, 204)" stroke-width="1px"></line><line x1="290.79777756076385" y1="0" x2="290.79777756076385" y2="5" style="visibility: inherit;" fill="rgb(0, 0, 0)" stroke="rgb(204, 204, 204)" stroke-width="1px"></line><line x1="363.4972219509549" y1="0" x2="363.4972219509549" y2="5" style="visibility: inherit;" fill="rgb(0, 0, 0)" stroke="rgb(204, 204, 204)" stroke-width="1px"></line><line x1="436.19666634114583" y1="0" x2="436.19666634114583" y2="5" style="visibility: inherit;" fill="rgb(0, 0, 0)" stroke="rgb(204, 204, 204)" stroke-width="1px"></line><line x1="508.8961107313368" y1="0" x2="508.8961107313368" y2="5" style="visibility: inherit;" fill="rgb(0, 0, 0)" stroke="rgb(204, 204, 204)" stroke-width="1px"></line><line x1="581.5955551215277" y1="0" x2="581.5955551215277" y2="5" style="visibility: inherit;" fill="rgb(0, 0, 0)" stroke="rgb(204, 204, 204)" stroke-width="1px"></line><line x1="654.2949995117187" y1="0" x2="654.2949995117187" y2="5" style="visibility: inherit;" fill="rgb(0, 0, 0)" stroke="rgb(204, 204, 204)" stroke-width="1px"></line></g><g transform="translate(0, 8)"><text style="text-anchor: middle; visibility: hidden; font-family: &quot;Helvetica Neue&quot;, sans-serif; font-size: 12px; font-weight: 200;" x="0" y="0" dx="0em" dy="0.95em" fill="rgb(50, 49, 63)" stroke="none" stroke-width="1px">-5k</text><text style="text-anchor: middle; visibility: hidden; font-family: &quot;Helvetica Neue&quot;, sans-serif; font-size: 12px; font-weight: 200;" x="72.69944439019096" y="0" dx="0em" dy="0.95em" fill="rgb(50, 49, 63)" stroke="none" stroke-width="1px">0</text><text style="text-anchor: middle; visibility: hidden; font-family: &quot;Helvetica Neue&quot;, sans-serif; font-size: 12px; font-weight: 200;" x="145.39888878038192" y="0" dx="0em" dy="0.95em" fill="rgb(50, 49, 63)" stroke="none" stroke-width="1px">5k</text><text style="text-anchor: middle; visibility: hidden; font-family: &quot;Helvetica Neue&quot;, sans-serif; font-size: 12px; font-weight: 200;" x="218.09833317057291" y="0" dx="0em" dy="0.95em" fill="rgb(50, 49, 63)" stroke="none" stroke-width="1px">10k</text><text style="text-anchor: middle; visibility: hidden; font-family: &quot;Helvetica Neue&quot;, sans-serif; font-size: 12px; font-weight: 200;" x="290.79777756076385" y="0" dx="0em" dy="0.95em" fill="rgb(50, 49, 63)" stroke="none" stroke-width="1px">15k</text><text style="text-anchor: middle; visibility: hidden; font-family: &quot;Helvetica Neue&quot;, sans-serif; font-size: 12px; font-weight: 200;" x="363.4972219509549" y="0" dx="0em" dy="0.95em" fill="rgb(50, 49, 63)" stroke="none" stroke-width="1px">20k</text><text style="text-anchor: middle; visibility: hidden; font-family: &quot;Helvetica Neue&quot;, sans-serif; font-size: 12px; font-weight: 200;" x="436.19666634114583" y="0" dx="0em" dy="0.95em" fill="rgb(50, 49, 63)" stroke="none" stroke-width="1px">25k</text><text style="text-anchor: middle; visibility: hidden; font-family: &quot;Helvetica Neue&quot;, sans-serif; font-size: 12px; font-weight: 200;" x="508.8961107313368" y="0" dx="0em" dy="0.95em" fill="rgb(50, 49, 63)" stroke="none" stroke-width="1px">30k</text><text style="text-anchor: middle; visibility: hidden; font-family: &quot;Helvetica Neue&quot;, sans-serif; font-size: 12px; font-weight: 200;" x="581.5955551215277" y="0" dx="0em" dy="0.95em" fill="rgb(50, 49, 63)" stroke="none" stroke-width="1px">35k</text><text style="text-anchor: middle; visibility: hidden; font-family: &quot;Helvetica Neue&quot;, sans-serif; font-size: 12px; font-weight: 200;" x="654.2949995117187" y="0" dx="0em" dy="0.95em" fill="rgb(50, 49, 63)" stroke="none" stroke-width="1px">40k</text></g><line x1="0" y1="0" x2="654.2949995117187" y2="0" fill="rgb(0, 0, 0)" stroke="rgb(204, 204, 204)" stroke-width="1px"></line></g></g></g></g></svg>