<svg viewBox="0 0 705.683349609375 400" xmlns="http://www.w3.org/2000/svg"><g><g><g><g><g><line x1="82.42900085449219" y1="378.0640001296997" x2="77.42900085449219" y2="378.0640001296997" style="visibility: inherit;" fill="rgb(0, 0, 0)" stroke="rgb(204, 204, 204)" stroke-width="1px"></line><line x1="82.42900085449219" y1="330.80600011348724" x2="77.42900085449219" y2="330.80600011348724" style="visibility: inherit;" fill="rgb(0, 0, 0)" stroke="rgb(204, 204, 204)" stroke-width="1px"></line><line x1="82.42900085449219" y1="283.5480000972748" x2="77.42900085449219" y2="283.5480000972748" style="visibility: inherit;" fill="rgb(0, 0, 0)" stroke="rgb(204, 204, 204)" stroke-width="1px"></line><line x1="82.42900085449219" y1="236.29000008106232" x2="77.42900085449219" y2="236.29000008106232" style="visibility: inherit;" fill="rgb(0, 0, 0)" stroke="rgb(204, 204, 204)" stroke-width="1px"></line><line x1="82.42900085449219" y1="189.03200006484985" x2="77.42900085449219" y2="189.03200006484985" style="visibility: inherit;" fill="rgb(0, 0, 0)" stroke="rgb(204, 204, 204)" stroke-width="1px"></line><line x1="82.42900085449219" y1="141.7740000486374" x2="77.42900085449219" y2="141.7740000486374" style="visibility: inherit;" fill="rgb(0, 0, 0)" stroke="rgb(204, 204, 204)" stroke-width="1px"></line><line x1="82.42900085449219" y1="94.51600003242493" x2="77.42900085449219" y2="94.51600003242493" style="visibility: inherit;" fill="rgb(0, 0, 0)" stroke="rgb(204, 204, 204)" stroke-width="1px"></line><line x1="82.42900085449219" y1="47.25800001621246" x2="77.42900085449219" y2="47.25800001621246" style="visibility: inherit;" fill="rgb(0, 0, 0)" stroke="rgb(204, 204, 204)" stroke-width="1px"></line><line x1="82.42900085449219" y1="0" x2="77.42900085449219" y2="0" style="visibility: inherit;" fill="rgb(0, 0, 0)" stroke="rgb(204, 204, 204)" stroke-width="1px"></line></g><g transform="translate(72.42900085449219, 0)"><text style="text-anchor: end; visibility: hidden; font-family: &quot;Helvetica Neue&quot;, sans-serif; font-size: 12px; font-weight: 200;" x="0" y="378.0640001296997" dx="0em" dy="0.3em" fill="rgb(50, 49, 63)" stroke="none" stroke-width="1px">-1.4e+3</text><text style="text-anchor: end; visibility: inherit; font-family: &quot;Helvetica Neue&quot;, sans-serif; font-size: 12px; font-weight: 200;" x="0" y="330.80600011348724" dx="0em" dy="0.3em" fill="rgb(50, 49, 63)" stroke="none" stroke-width="1px">-1.2e+3</text><text style="text-anchor: end; visibility: inherit; font-family: &quot;Helvetica Neue&quot;, sans-serif; font-size: 12px; font-weight: 200;" x="0" y="283.5480000972748" dx="0em" dy="0.3em" fill="rgb(50, 49, 63)" stroke="none" stroke-width="1px">-1e+3</text><text style="text-anchor: end; visibility: inherit; font-family: &quot;Helvetica Neue&quot;, sans-serif; font-size: 12px; font-weight: 200;" x="0" y="236.29000008106232" dx="0em" dy="0.3em" fill="rgb(50, 49, 63)" stroke="none" stroke-width="1px">-800</text><text style="text-anchor: end; visibility: inherit; font-family: &quot;Helvetica Neue&quot;, sans-serif; font-size: 12px; font-weight: 200;" x="0" y="189.03200006484985" dx="0em" dy="0.3em" fill="rgb(50, 49, 63)" stroke="none" stroke-width="1px">-600</text><text style="text-anchor: end; visibility: inherit; font-family: &quot;Helvetica Neue&quot;, sans-serif; font-size: 12px; font-weight: 200;" x="0" y="141.7740000486374" dx="0em" dy="0.3em" fill="rgb(50, 49, 63)" stroke="none" stroke-width="1px">-400</text><text style="text-anchor: end; visibility: inherit; font-family: &quot;Helvetica Neue&quot;, sans-serif; font-size: 12px; font-weight: 200;" x="0" y="94.51600003242493" dx="0em" dy="0.3em" fill="rgb(50, 49, 63)" stroke="none" stroke-width="1px">-200</text><text style="text-anchor: end; visibility: inherit; font-family: &quot;Helvetica Neue&quot;, sans-serif; font-size: 12px; font-weight: 200;" x="0" y="47.25800001621246" dx="0em" dy="0.3em" fill="rgb(50, 49, 63)" stroke="none" stroke-width="1px">0</text><text style="text-anchor: end; visibility: hidden; font-family: &quot;Helvetica Neue&quot;, sans-serif; font-size: 12px; font-weight: 200;" x="0" y="0" dx="0em" dy="0.3em" fill="rgb(50, 49, 63)" stroke="none" stroke-width="1px">200</text></g><line x1="82.42900085449219" y1="0" x2="82.42900085449219" y2="378.0640001296997" fill="rgb(0, 0, 0)" stroke="rgb(204, 204, 204)" stroke-width="1px"></line></g></g><g transform="translate(82, 0)" clip-path="url(#clip_0)"><clipPath id="clip_0"><rect width="623" height="378"></rect></clipPath><g><g><g><line x1="0" y1="0" x2="0" y2="378.0640001296997" fill="rgb(0, 0, 0)" stroke="rgb(60, 60, 60)" stroke-width="1px" opacity="0.25"></line><line x1="44.518142796107696" y1="0" x2="44.518142796107696" y2="378.0640001296997" fill="rgb(0, 0, 0)" stroke="rgb(60, 60, 60)" stroke-width="1px" opacity="0.25"></line><line x1="89.03628559221539" y1="0" x2="89.03628559221539" y2="378.0640001296997" fill="rgb(0, 0, 0)" stroke="rgb(60, 60, 60)" stroke-width="1px" opacity="0.25"></line><line x1="133.5544283883231" y1="0" x2="133.5544283883231" y2="378.0640001296997" fill="rgb(0, 0, 0)" stroke="rgb(60, 60, 60)" stroke-width="1px" opacity="0.25"></line><line x1="178.07257118443079" y1="0" x2="178.07257118443079" y2="378.0640001296997" fill="rgb(0, 0, 0)" stroke="rgb(60, 60, 60)" stroke-width="1px" opacity="0.25"></line><line x1="222.5907139805385" y1="0" x2="222.5907139805385" y2="378.0640001296997" fill="rgb(0, 0, 0)" stroke="rgb(60, 60, 60)" stroke-width="1px" opacity="0.25"></line><line x1="267.1088567766462" y1="0" x2="267.1088567766462" y2="378.0640001296997" fill="rgb(0, 0, 0)" stroke="rgb(60, 60, 60)" stroke-width="1px" opacity="0.25"></line><line x1="311.6269995727539" y1="0" x2="311.6269995727539" y2="378.0640001296997" fill="rgb(0, 0, 0)" stroke="rgb(60, 60, 60)" stroke-width="1px" opacity="0.25"></line><line x1="356.14514236886157" y1="0" x2="356.14514236886157" y2="378.0640001296997" fill="rgb(0, 0, 0)" stroke="rgb(60, 60, 60)" stroke-width="1px" opacity="0.25"></line><line x1="400.66328516496935" y1="0" x2="400.66328516496935" y2="378.0640001296997" fill="rgb(0, 0, 0)" stroke="rgb(60, 60, 60)" stroke-width="1px" opacity="0.25"></line><line x1="445.181427961077" y1="0" x2="445.181427961077" y2="378.0640001296997" fill="rgb(0, 0, 0)" stroke="rgb(60, 60, 60)" stroke-width="1px" opacity="0.25"></line><line x1="489.6995707571847" y1="0" x2="489.6995707571847" y2="378.0640001296997" fill="rgb(0, 0, 0)" stroke="rgb(60, 60, 60)" stroke-width="1px" opacity="0.25"></line><line x1="534.2177135532924" y1="0" x2="534.2177135532924" y2="378.0640001296997" fill="rgb(0, 0, 0)" stroke="rgb(60, 60, 60)" stroke-width="1px" opacity="0.25"></line><line x1="578.7358563494001" y1="0" x2="578.7358563494001" y2="378.0640001296997" fill="rgb(0, 0, 0)" stroke="rgb(60, 60, 60)" stroke-width="1px" opacity="0.25"></line><line x1="623.2539991455078" y1="0" x2="623.2539991455078" y2="378.0640001296997" fill="rgb(0, 0, 0)" stroke="rgb(60, 60, 60)" stroke-width="1px" opacity="0.25"></line></g><g><line x1="0" y1="378.0640001296997" x2="623.2539991455078" y2="378.0640001296997" fill="rgb(0, 0, 0)" stroke="rgb(60, 60, 60)" stroke-width="1px" opacity="0.25"></line><line x1="0" y1="330.80600011348724" x2="623.2539991455078" y2="330.80600011348724" fill="rgb(0, 0, 0)" stroke="rgb(60, 60, 60)" stroke-width="1px" opacity="0.25"></line><line x1="0" y1="283.5480000972748" x2="623.2539991455078" y2="283.5480000972748" fill="rgb(0, 0, 0)" stroke="rgb(60, 60, 60)" stroke-width="1px" opacity="0.25"></line><line x1="0" y1="236.29000008106232" x2="623.2539991455078" y2="236.29000008106232" fill="rgb(0, 0, 0)" stroke="rgb(60, 60, 60)" stroke-width="1px" opacity="0.25"></line><line x1="0" y1="189.03200006484985" x2="623.2539991455078" y2="189.03200006484985" fill="rgb(0, 0, 0)" stroke="rgb(60, 60, 60)" stroke-width="1px" opacity="0.25"></line><line x1="0" y1="141.7740000486374" x2="623.2539991455078" y2="141.7740000486374" fill="rgb(0, 0, 0)" stroke="rgb(60, 60, 60)" stroke-width="1px" opacity="0.25"></line><line x1="0" y1="94.51600003242493" x2="623.2539991455078" y2="94.51600003242493" fill="rgb(0, 0, 0)" stroke="rgb(60, 60, 60)" stroke-width="1px" opacity="0.25"></line><line x1="0" y1="47.25800001621246" x2="623.2539991455078" y2="47.25800001621246" fill="rgb(0, 0, 0)" stroke="rgb(60, 60, 60)" stroke-width="1px" opacity="0.25"></line><line x1="0" y1="0" x2="623.2539991455078" y2="0" fill="rgb(0, 0, 0)" stroke="rgb(60, 60, 60)" stroke-width="1px" opacity="0.25"></line></g></g></g><g><g><line x1="0" y1="47.25800001621246" x2="623.2539991455078" y2="47.25800001621246" fill="rgb(0, 0, 0)" stroke="rgb(153, 153, 153)" stroke-width="1.5px"></line></g></g><g><g><line x1="44.518142796107696" y1="0" x2="44.518142796107696" y2="378.0640001296997" fill="rgb(0, 0, 0)" stroke="rgb(153, 153, 153)" stroke-width="1.5px"></line></g></g><g><g><g><g><g><path style="fill: none;" stroke="rgb(255, 112, 67)" stroke-width="2px" d="M46.74404993591308,259.04906522558883L48.96995707571847,335.27187366365416L51.195864215523855,370.7240708567011L53.42177135532924,385.6679069763933L60.0994927747454,380.7168386777805L62.325399914550786,368.9559541483883L64.55130705435617,356.3240039511325L66.77721419416154,346.59782869029397L69.00312133396693,338.5002175987037L71.22902847377232,335.6631855819092L73.4549356135777,329.9783915625168L75.68084275338309,325.87267289452774L77.90674989318848,314.9329420756813L80.13265703299385,302.0413664577994L82.35856417279925,291.2795377196905L84.58447131260462,286.2985940078777L86.81037845241002,279.9525421694095L89.03628559221539,274.4873733563447L91.2621927320208,263.98717652924995L93.48809987182617,257.56649561790925L95.71400701163157,253.18678384264152L97.93991415143694,252.85838261687942L100.16582129124234,250.0836057813628L102.39172843104771,248.067004457466L104.61763557085308,248.24614991201807L106.84354271065848,248.16092495731417L109.06944985046385,248.6370671131567L111.29535699026925,248.7405467417078L113.52126413007463,248.74004068877773L115.74717126988003,248.69641757535632L117.9730784096854,248.72697089583488L120.1989855494908,246.37242330953535L122.42489268929617,241.87299225772176L124.65079982910157,235.45047751733233L126.87670696890694,232.38017912189457L129.10261410871234,228.72867690788453L131.32852124851772,232.60808853707272L133.5544283883231,229.91016682340953L135.7803355281285,236.3207385187665L138.00624266793386,230.54147712977226L140.23214980773926,232.76386534497223L142.45805694754463,236.38293785185834L144.68396408735003,223.39437602488823L146.9098712271554,222.97018824386376L149.1357783669608,225.1085780695284L151.36168550676618,226.7842227973154L153.58759264657158,214.36007153912252L155.81349978637695,210.44842343463512L158.03940692618232,201.82274204622124L160.2653140659877,199.3408615285617L162.49122120579312,187.0475440706205L164.7171283455985,178.1576162687579L166.94303548540387,199.83526181054214L169.16894262520924,187.5402239977243L171.39484976501467,183.22243699900076L173.62075690482004,203.74477618669746L175.8466640446254,223.6807849127471L178.07257118443079,214.23262054162774L180.2984783242362,232.93737181705035L182.5243854640416,218.03242771685257L184.75029260384696,206.6775328131074L186.97619974365233,200.96164162296748L189.2021068834577,193.26928357530872L191.42801402326313,183.80714886239193L193.6539211630685,208.4071485071263L195.87982830287388,195.510385593038L198.10573544267925,188.14950528030323L200.33164258248468,179.1847428723528L202.55754972229005,173.2006357403448L204.78345686209542,165.4909242856218L207.0093640019008,160.59462693542906L209.23527114170616,185.8404546977268L211.4611782815116,179.32188010059127L213.68708542131697,171.1104866412625L215.91299256112234,165.84464064632428L218.1388997009277,158.68838807792983L220.36480684073314,158.94851355836215L222.5907139805385,152.35652955304903L224.81662112034388,143.96416823044055L227.04252826014925,138.63898672570448L229.26843539995468,138.21977563577175L231.49434253976005,133.21092711996312L233.72024967956543,160.48374671494008L235.9461568193708,153.7282958791009L238.17206395917617,152.47174541732278L240.3979710989816,159.29865492148338L242.62387823878697,152.5811865014137L244.84978537859234,151.37354642205312L247.07569251839772,152.63968076685026L249.30159965820314,146.5828941322431L251.52750679800852,142.95233609528356L253.7534139378139,137.5739837133523L255.97932107761926,132.67859842627882L258.2052282174247,128.1100285162904L260.43113535723006,121.66242360029423L262.65704249703543,118.00871942412715L264.8829496368408,119.09783050049657L267.1088567766462,118.09426235737601L269.3347639164516,114.81822863460087L271.560671056257,111.71949816574994L273.78657819606235,106.60580612947632L276.0124853358677,104.13324031416397L278.23839247567315,101.81307710319942L280.4642996154785,99.81487362246969L282.6902067552839,102.76759573015954L284.91611389508927,104.91487823754301L287.14202103489464,102.61468588892797L289.36792817470007,100.48338483935328L291.59383531450544,106.07779159049636L293.8197424543108,103.56902830717326L296.0456495941162,103.69205948433421L298.2715567339216,103.65595054824735L300.497463873727,101.36794412531646L302.72337101353236,103.6271461373791L304.94927815333773,101.40123028937785L307.17518529314316,99.39869703414172L309.40109243294853,103.31954506548584L311.6269995727539,101.20070610610384L313.8529067125593,99.10211119163085L316.07881385236465,99.38766993422149L318.30472099217,97.48748177891684L320.5306281319754,100.16543191449762L322.7565352717809,100.66911954570537L324.98244241158625,98.71040862506396L327.2083495513916,99.1922237932352L329.434256691197,97.41239510511764L331.66016383100236,95.73939883447372L333.88607097080774,94.12867487089488L336.1119781106131,92.66092196016854L338.3378852504185,91.34688618597897L340.56379239022385,90.1964005928723L342.78969953002934,93.86316657463374L345.0156066698347,92.4384877781834L347.2415138096401,91.20496980965095L349.46742094944545,94.39731429977496L351.6933280892508,97.26779190636438L353.9192352290562,93.30866810877819L356.14514236886157,93.97708244431135L358.37104950866694,92.5309678039161L360.5969566484724,91.2762037153417L362.8228637882778,87.78681642939341L365.0487709280832,86.83027773830855L367.27467806788854,90.52141725305165L369.5005852076939,93.62771683902474L371.7264923474993,94.5578102670629L373.95239948730466,97.84893354659027L376.17830662711003,93.82494361738117L378.4042137669154,90.13952357021918L380.6301209067209,89.03141075410377L382.85602804652626,85.73708547989457L385.08193518633163,85.04685693167767L387.307842326137,86.47457227256547L389.5337494659424,87.85224669465418L391.75965660574775,86.98813531238375L393.9855637455531,86.22428885219932L396.2114708853585,85.44875633628305L398.43737802516387,82.43369753668787L400.66328516496935,86.65330898620903L402.8891923047747,92.60584351143837L405.1150994445801,89.01700279930344L407.34100658438547,87.95362015308092L409.56691372419084,86.90635984840321L411.7928208639962,86.0780354325151L414.0187280038016,83.04502490660269L416.24463514360696,84.5818218803052L418.4705422834123,81.6499720992224L420.6964494232178,85.52611450122589L422.9223565630232,89.02746274331315L425.14826370282856,87.97138329654717L427.37417084263393,86.9890460597581L429.6000779824393,86.21242485485789L431.8259851222447,87.68695815080434L434.05189226205005,92.28244735752514L436.2777994018554,97.62909899851485L438.5037065416609,93.65168136078154L440.7296136814663,92.32369022012386L442.95552082127165,91.13662206022121L445.181427961077,89.97855938004642L447.4073351008824,88.9418108315528L449.63324224068776,89.93272839716616L451.85914938049314,93.60112377682537L454.0850565202985,92.25696961280886L456.3109636601039,93.13513596229785L458.53687079990937,95.82100217190361L460.76277793971474,100.26947724118452L462.9886850795201,102.78230280583432L465.2145922193255,100.73080141974407L467.44049935913085,98.841145119322L469.6664064989362,99.08907753236758L471.8923136387416,102.14589347813171L474.11822077854697,100.08675449705635L476.34412791835234,100.29098742144299L478.5700350581578,100.58476657843812L480.7959421979632,102.9125834472L483.0218493377686,106.86506274989245L485.24775647757394,102.13977691006443L487.4736636173793,100.04846872320263L489.6995707571847,100.07102534309917L491.92547789699006,100.36122246498797L494.15138503679543,98.52609250288964L496.3772921766008,96.76248810424431L498.6031993164063,95.13048268353634L500.82910645621166,93.649404596019L503.05501359601703,92.17895785521318L505.2809207358224,90.92703248398954L507.5068278756278,89.78118599361466L509.73273501543315,93.05485137393447L511.9586421552385,96.31870675714725L514.1845492950439,94.72910350237845L516.4104564348494,93.17854001419278L518.6363635746548,91.81641727045991L520.8622707144601,90.64008384016432L523.0881778542655,89.45837270785529L525.3140849940709,88.38334222348487L527.5399921338762,87.37037294377615L529.7658992736816,88.83029210107372L531.991806413487,89.82922608640837L534.2177135532924,88.72891811308563L536.4436206930978,87.73510214689185L538.6695278329032,86.82711824546482L540.8954349727086,86.00360962318547L543.121342112514,82.95411712516318L545.3472492523193,82.48775952485863L547.5731563921247,81.90621146969625L549.7990635319301,81.44067907597747L552.0249706717354,78.76893322772696L554.2508778115408,76.28556388770204L556.4767849513463,76.22331542869819L558.7026920911517,78.39369563767104L560.928599230957,75.95332407537029L563.1545063707624,78.03077995425656L565.3804135105678,77.8894035267582L567.6063206503732,75.49142198374483L569.8322277901785,77.7326648589061L572.0581349299839,77.59962288736898L574.2840420697893,75.21283960434715L576.5099492095948,75.22533688851672L578.7358563494001,75.29482336544663L580.9617634892055,75.23632908069771L583.1876706290109,75.28365926568802L585.4135777688163,80.20662312945541L587.6394849086216,84.03705142775596L589.865392048427,83.36904120725103L592.0912991882324,80.54914759564218L594.3172063280379,80.17017710594325L596.5431134678432,85.71196297434147L598.7690206076486,84.89868644355062L600.994927747454,84.2410511186942L603.2208348872593,83.64640742919892L605.4467420270647,82.97291748884015" fill="none"></path></g></g></g></g><g opacity="0.2"><g><g><g><path style="fill: none;" stroke="rgb(255, 112, 67)" stroke-width="2px" d="M46.74404993591308,259.04906522558883L48.96995707571847,405.3968574266743L55.64767849513463,467.6779056682554L57.873585634940014,333.486847461819L60.0994927747454,336.89707289023505L62.325399914550786,309.15463087632315L64.55130705435617,285.6105620089931L66.77721419416154,287.5585411539485L69.00312133396693,285.82904084268625L71.22902847377232,316.07583380472295L73.4549356135777,288.6394986787334L75.68084275338309,294.62778588232584L77.90674989318848,228.27624434222912L80.13265703299385,196.23273014056235L82.35856417279925,200.11637204497086L84.58447131260462,242.89815914094652L86.81037845241002,223.24275103300718L89.03628559221539,224.5284432282725L91.2621927320208,166.02005962360568L93.48809987182617,196.54675470487905L95.71400701163157,210.86416345734943L97.93991415143694,249.636678632394L100.16582129124234,222.48721145022847L102.39172843104771,227.76021086487924L104.61763557085308,250.07060768039443L106.84354271065848,247.28400382750974L109.06944985046385,253.58243607820566L111.29535699026925,249.82453956629632L113.52126413007463,248.73469809131308L115.74717126988003,248.2325818411408L117.9730784096854,249.0539578405681L120.1989855494908,221.02336432509247L122.42489268929617,193.1679115420988L124.65079982910157,165.5815948575251L126.87670696890694,198.82659842453324L129.10261410871234,188.65648010500422L131.32852124851772,275.3445950969019L133.5544283883231,200.08481671537018L135.7803355281285,307.41744364061975L138.00624266793386,166.25703466854782L140.23214980773926,257.55112449936695L142.45805694754463,276.8483623099422L144.68396408735003,77.83590039810156L146.9098712271554,218.2065031223439L149.1357783669608,249.16914633120822L151.36168550676618,245.67139380254244L153.58759264657158,74.0931722216161L155.81349978637695,166.22071286891378L158.03940692618232,104.16160834582308L160.2653140659877,171.2053588740418L162.49122120579312,47.5250845010446L164.7171283455985,77.15470981574504L166.94303548540387,446.3660013982488L169.16894262520924,47.58860184929625L171.39484976501467,134.03355557637747L173.62075690482004,437.71542795656035L175.8466640446254,451.12505852512555L178.07257118443079,106.37219403002263L180.2984783242362,446.5968398834354L182.5243854640416,47.68503323701367L184.75029260384696,76.83879236431221L186.97619974365233,135.57277926922728L189.2021068834577,105.23293918756025L191.42801402326313,75.47443178050065L193.6539211630685,490.15467464203084L195.87982830287388,47.75346896512343L198.10573544267925,103.79125867192897L200.33164258248468,76.41701204609802L202.55754972229005,104.58424136461434L204.78345686209542,77.06729448597264L207.0093640019008,104.42629525814533L209.23527114170616,475.50769441239663L211.4611782815116,104.515001356656L213.68708542131697,76.86109778553873L215.91299256112234,105.39457371978125L218.1388997009277,76.525465464104L220.36480684073314,161.93547603394762L222.5907139805385,76.65317405095504L224.81662112034388,47.57436421153909L227.04252826014925,77.47082376688803L229.26843539995468,133.40402098204527L231.49434253976005,75.66603161714471L233.72024967956543,473.8363291713447L235.9461568193708,76.10552214776732L238.17206395917617,138.03252298039826L240.3979710989816,237.75259249245275L242.62387823878697,75.38056080428737L244.84978537859234,137.4939983986095L247.07569251839772,167.19220743589744L249.30159965820314,76.96513626968999L251.52750679800852,101.22037905129599L253.7534139378139,75.74945385647692L255.97932107761926,76.40387721226176L258.2052282174247,75.59054327895353L260.43113535723006,47.53972575754415L262.65704249703543,76.00402914609981L264.8829496368408,131.6190680920286L267.1088567766462,106.55622952920072L269.3347639164516,77.15285298362159L271.560671056257,76.09194023202167L273.78657819606235,47.81025439555282L276.0124853358677,75.70402997393876L278.23839247567315,75.13577264242974L280.4642996154785,76.83915651973837L282.6902067552839,136.71897469778213L284.91611389508927,129.60533185140855L287.14202103489464,76.16572136630907L289.36792817470007,75.97619108624525L291.59383531450544,170.40678405199048L293.8197424543108,74.7210086257927L296.0456495941162,105.10679358464222L298.2715567339216,103.24073138307432L300.497463873727,75.05782895923647L302.72337101353236,129.60618996023453L304.94927815333773,75.80481088950069L307.17518529314316,76.3708995131995L309.40109243294853,148.40689283350565L311.6269995727539,76.83525356677984L313.8529067125593,74.96935902092793L316.07881385236465,102.6714591035211L318.30472099217,75.63615284470404L320.5306281319754,130.96077603552834L322.7565352717809,106.46133999944408L324.98244241158625,76.18590314846625L327.2083495513916,104.73294657645732L329.434256691197,76.94488057479782L331.66016383100236,76.50038741393973L333.88607097080774,75.60574406387087L336.1119781106131,75.78209444135751L338.3378852504185,76.23574737310798L340.56379239022385,76.96603584175756L342.78969953002934,136.03033154843695L345.0156066698347,76.05491175453096L347.2415138096401,77.01969648737537L349.46742094944545,131.10883946850151L351.6933280892508,130.27792331800896L353.9192352290562,47.779202596459356L356.14514236886157,101.66377614037634L358.37104950866694,75.90079108278616L360.5969566484724,76.84652976574307L362.8228637882778,47.65915192104751L365.0487709280832,75.83015574661084L367.27467806788854,132.96926266921298L369.5005852076939,129.34996154919696L371.7264923474993,105.25382945032379L373.95239948730466,135.6966714351023L376.17830662711003,47.549261711582915L378.4042137669154,47.75736346769298L380.6301209067209,76.28816051597875L382.85602804652626,47.85247377794394L385.08193518633163,77.10925348371347L387.307842326137,102.89325139104227L389.5337494659424,103.69546055635652L391.75965660574775,77.05087864780171L393.9855637455531,77.44007426637393L396.2114708853585,76.53015081040382L398.43737802516387,47.76058717839078L400.66328516496935,135.17875588713406L402.8891923047747,161.0598805365159L405.1150994445801,47.74539563256536L407.34100658438547,75.72473635623959L409.56691372419084,74.8628814165213L411.7928208639962,76.55231561715885L414.0187280038016,48.16544080425638L416.24463514360696,102.25496985548392L418.4705422834123,47.93372984458267L420.6964494232178,130.1017153577434L422.9223565630232,129.29293697276137L425.14826370282856,75.82647813735662L427.37417084263393,75.6921750923429L429.6000779824393,77.28128627582566L431.8259851222447,104.64408183597885L434.05189226205005,145.1305468039393L436.2777994018554,159.1155645788176L438.5037065416609,47.911397889134946L440.7296136814663,77.05179805011522L442.95552082127165,77.48534311244356L445.181427961077,76.66084294789982L447.4073351008824,77.01920613947482L449.63324224068776,101.32827722241456L451.85914938049314,135.7876598146501L454.0850565202985,76.79920037684133L456.3109636601039,103.23404678742992L458.53687079990937,126.70845740888643L460.76277793971474,151.42693113105054L462.9886850795201,131.67979191071402L465.2145922193255,77.13853915152441L467.44049935913085,77.11010077604163L469.6664064989362,101.94029990679809L471.8923136387416,137.29927259409936L474.11822077854697,76.40665885494764L476.34412791835234,102.63966581096867L478.5700350581578,103.96322656505436L480.7959421979632,129.68247511376416L483.0218493377686,152.3185711002285L485.24775647757394,47.798993745305154L487.4736636173793,75.99842620023605L489.6995707571847,100.33042645577586L491.92547789699006,103.69848917574234L494.15138503679543,77.42209904976926L496.3772921766008,76.48103850211368L498.6031993164063,76.36242118166894L500.82910645621166,76.61700728778959L503.05501359601703,75.26882097369793L505.2809207358224,76.52989121445648L507.5068278756278,76.60395177493717L509.73273501543315,130.70200214200696L511.9586421552385,133.85304264998496L514.1845492950439,76.4486665269286L516.4104564348494,75.34706030783121L518.6363635746548,76.15200604709048L520.8622707144601,77.11224965360583L523.0881778542655,75.86869492829521L525.3140849940709,76.02049185576118L527.5399921338762,75.7212264027014L529.7658992736816,105.61936217719477L531.991806413487,101.31696677120829L534.2177135532924,76.07537656838076L536.4436206930978,76.30621865906664L538.6695278329032,76.38530348277845L540.8954349727086,76.53326055352318L543.121342112514,47.88495369276336L545.3472492523193,77.12464716284165L547.5731563921247,75.21840888292132L549.7990635319301,76.08705658326204L552.0249706717354,48.04385615791341L554.2508778115408,47.72681663567295L556.4767849513463,75.50745815380299L558.7026920911517,103.35306792379276L560.928599230957,47.88905123001052L563.1545063707624,101.92152246660612L565.3804135105678,76.26357461646472L567.6063206503732,47.914634331751984L569.8322277901785,103.50695784358436L572.0581349299839,76.06964021904406L574.2840420697893,47.76483192141279L576.5099492095948,75.36905565612062L578.7358563494001,76.09391784837061L580.9617634892055,74.5636448074556L583.1876706290109,75.82795639205682L585.4135777688163,136.82070746515097L587.6394849086216,128.08697678832664L589.865392048427,75.68692368265789L592.0912991882324,48.12037110568542L594.3172063280379,75.8120164797894L596.5431134678432,149.44250038848742L598.7690206076486,75.54600634923548L600.994927747454,76.67824489012077L603.2208348872593,76.8080050060558L605.4467420270647,75.22778318102024" fill="none"></path></g></g></g></g></g></g><g transform="translate(82, 378)" clip-path="url(#clip_1)"><clipPath id="clip_1"><rect width="623" height="21"></rect></clipPath><g><g><line x1="0" y1="0" x2="0" y2="5" style="visibility: inherit;" fill="rgb(0, 0, 0)" stroke="rgb(204, 204, 204)" stroke-width="1px"></line><line x1="44.518142796107696" y1="0" x2="44.518142796107696" y2="5" style="visibility: inherit;" fill="rgb(0, 0, 0)" stroke="rgb(204, 204, 204)" stroke-width="1px"></line><line x1="89.03628559221539" y1="0" x2="89.03628559221539" y2="5" style="visibility: inherit;" fill="rgb(0, 0, 0)" stroke="rgb(204, 204, 204)" stroke-width="1px"></line><line x1="133.5544283883231" y1="0" x2="133.5544283883231" y2="5" style="visibility: inherit;" fill="rgb(0, 0, 0)" stroke="rgb(204, 204, 204)" stroke-width="1px"></line><line x1="178.07257118443079" y1="0" x2="178.07257118443079" y2="5" style="visibility: inherit;" fill="rgb(0, 0, 0)" stroke="rgb(204, 204, 204)" stroke-width="1px"></line><line x1="222.5907139805385" y1="0" x2="222.5907139805385" y2="5" style="visibility: inherit;" fill="rgb(0, 0, 0)" stroke="rgb(204, 204, 204)" stroke-width="1px"></line><line x1="267.1088567766462" y1="0" x2="267.1088567766462" y2="5" style="visibility: inherit;" fill="rgb(0, 0, 0)" stroke="rgb(204, 204, 204)" stroke-width="1px"></line><line x1="311.6269995727539" y1="0" x2="311.6269995727539" y2="5" style="visibility: inherit;" fill="rgb(0, 0, 0)" stroke="rgb(204, 204, 204)" stroke-width="1px"></line><line x1="356.14514236886157" y1="0" x2="356.14514236886157" y2="5" style="visibility: inherit;" fill="rgb(0, 0, 0)" stroke="rgb(204, 204, 204)" stroke-width="1px"></line><line x1="400.66328516496935" y1="0" x2="400.66328516496935" y2="5" style="visibility: inherit;" fill="rgb(0, 0, 0)" stroke="rgb(204, 204, 204)" stroke-width="1px"></line><line x1="445.181427961077" y1="0" x2="445.181427961077" y2="5" style="visibility: inherit;" fill="rgb(0, 0, 0)" stroke="rgb(204, 204, 204)" stroke-width="1px"></line><line x1="489.6995707571847" y1="0" x2="489.6995707571847" y2="5" style="visibility: inherit;" fill="rgb(0, 0, 0)" stroke="rgb(204, 204, 204)" stroke-width="1px"></line><line x1="534.2177135532924" y1="0" x2="534.2177135532924" y2="5" style="visibility: inherit;" fill="rgb(0, 0, 0)" stroke="rgb(204, 204, 204)" stroke-width="1px"></line><line x1="578.7358563494001" y1="0" x2="578.7358563494001" y2="5" style="visibility: inherit;" fill="rgb(0, 0, 0)" stroke="rgb(204, 204, 204)" stroke-width="1px"></line><line x1="623.2539991455078" y1="0" x2="623.2539991455078" y2="5" style="visibility: inherit;" fill="rgb(0, 0, 0)" stroke="rgb(204, 204, 204)" stroke-width="1px"></line></g><g transform="translate(0, 8)"><text style="text-anchor: middle; visibility: hidden; font-family: &quot;Helvetica Neue&quot;, sans-serif; font-size: 12px; font-weight: 200;" x="0" y="0" dx="0em" dy="0.95em" fill="rgb(50, 49, 63)" stroke="none" stroke-width="1px">-20</text><text style="text-anchor: middle; visibility: hidden; font-family: &quot;Helvetica Neue&quot;, sans-serif; font-size: 12px; font-weight: 200;" x="44.518142796107696" y="0" dx="0em" dy="0.95em" fill="rgb(50, 49, 63)" stroke="none" stroke-width="1px">0</text><text style="text-anchor: middle; visibility: hidden; font-family: &quot;Helvetica Neue&quot;, sans-serif; font-size: 12px; font-weight: 200;" x="89.03628559221539" y="0" dx="0em" dy="0.95em" fill="rgb(50, 49, 63)" stroke="none" stroke-width="1px">20</text><text style="text-anchor: middle; visibility: hidden; font-family: &quot;Helvetica Neue&quot;, sans-serif; font-size: 12px; font-weight: 200;" x="133.5544283883231" y="0" dx="0em" dy="0.95em" fill="rgb(50, 49, 63)" stroke="none" stroke-width="1px">40</text><text style="text-anchor: middle; visibility: hidden; font-family: &quot;Helvetica Neue&quot;, sans-serif; font-size: 12px; font-weight: 200;" x="178.07257118443079" y="0" dx="0em" dy="0.95em" fill="rgb(50, 49, 63)" stroke="none" stroke-width="1px">60</text><text style="text-anchor: middle; visibility: hidden; font-family: &quot;Helvetica Neue&quot;, sans-serif; font-size: 12px; font-weight: 200;" x="222.5907139805385" y="0" dx="0em" dy="0.95em" fill="rgb(50, 49, 63)" stroke="none" stroke-width="1px">80</text><text style="text-anchor: middle; visibility: hidden; font-family: &quot;Helvetica Neue&quot;, sans-serif; font-size: 12px; font-weight: 200;" x="267.1088567766462" y="0" dx="0em" dy="0.95em" fill="rgb(50, 49, 63)" stroke="none" stroke-width="1px">100</text><text style="text-anchor: middle; visibility: hidden; font-family: &quot;Helvetica Neue&quot;, sans-serif; font-size: 12px; font-weight: 200;" x="311.6269995727539" y="0" dx="0em" dy="0.95em" fill="rgb(50, 49, 63)" stroke="none" stroke-width="1px">120</text><text style="text-anchor: middle; visibility: hidden; font-family: &quot;Helvetica Neue&quot;, sans-serif; font-size: 12px; font-weight: 200;" x="356.14514236886157" y="0" dx="0em" dy="0.95em" fill="rgb(50, 49, 63)" stroke="none" stroke-width="1px">140</text><text style="text-anchor: middle; visibility: hidden; font-family: &quot;Helvetica Neue&quot;, sans-serif; font-size: 12px; font-weight: 200;" x="400.66328516496935" y="0" dx="0em" dy="0.95em" fill="rgb(50, 49, 63)" stroke="none" stroke-width="1px">160</text><text style="text-anchor: middle; visibility: hidden; font-family: &quot;Helvetica Neue&quot;, sans-serif; font-size: 12px; font-weight: 200;" x="445.181427961077" y="0" dx="0em" dy="0.95em" fill="rgb(50, 49, 63)" stroke="none" stroke-width="1px">180</text><text style="text-anchor: middle; visibility: hidden; font-family: &quot;Helvetica Neue&quot;, sans-serif; font-size: 12px; font-weight: 200;" x="489.6995707571847" y="0" dx="0em" dy="0.95em" fill="rgb(50, 49, 63)" stroke="none" stroke-width="1px">200</text><text style="text-anchor: middle; visibility: hidden; font-family: &quot;Helvetica Neue&quot;, sans-serif; font-size: 12px; font-weight: 200;" x="534.2177135532924" y="0" dx="0em" dy="0.95em" fill="rgb(50, 49, 63)" stroke="none" stroke-width="1px">220</text><text style="text-anchor: middle; visibility: hidden; font-family: &quot;Helvetica Neue&quot;, sans-serif; font-size: 12px; font-weight: 200;" x="578.7358563494001" y="0" dx="0em" dy="0.95em" fill="rgb(50, 49, 63)" stroke="none" stroke-width="1px">240</text><text style="text-anchor: middle; visibility: hidden; font-family: &quot;Helvetica Neue&quot;, sans-serif; font-size: 12px; font-weight: 200;" x="623.2539991455078" y="0" dx="0em" dy="0.95em" fill="rgb(50, 49, 63)" stroke="none" stroke-width="1px">260</text></g><line x1="0" y1="0" x2="623.2539991455078" y2="0" fill="rgb(0, 0, 0)" stroke="rgb(204, 204, 204)" stroke-width="1px"></line></g></g></g></g></svg>